<?xml version="1.0" encoding="UTF-8"?>
<!DOCTYPE svg PUBLIC "-//W3C//DTD SVG 1.1//EN" "http://www.w3.org/Graphics/SVG/1.1/DTD/svg11.dtd">
<!-- Creator: CorelDRAW -->
<svg xmlns="http://www.w3.org/2000/svg" xml:space="preserve" width="16.9333mm" height="16.9333mm" version="1.1" style="shape-rendering:geometricPrecision; text-rendering:geometricPrecision; image-rendering:optimizeQuality; fill-rule:evenodd; clip-rule:evenodd"
viewBox="0 0 15.11 15.11"
 xmlns:xlink="http://www.w3.org/1999/xlink"
 xmlns:xodm="http://www.corel.com/coreldraw/odm/2003">
 <defs>
  <style type="text/css">
   <![CDATA[
    .fil0 {fill:none}
    .fil1 {fill:black}
   ]]>
  </style>
 </defs>
 <g id="Layer_x0020_1">
  <metadata id="CorelCorpID_0Corel-Layer"/>
  <circle class="fil0" cx="7.56" cy="7.56" r="7.56"/>
  <g id="_105553194349952">
   <path class="fil1" d="M7.56 9.9c-0.35,0 -0.91,-0.11 -1.16,-0.3 -0.56,-0.42 0.23,-0.71 0.58,-0.8 0.02,0.08 0.19,0.29 0.25,0.38 0.28,0.41 0.34,0.49 0.65,0.01l0.26 -0.4c0.29,0.07 1.05,0.33 0.67,0.72 -0.24,0.24 -0.78,0.38 -1.25,0.38zm-0.02 -0.95c-0.02,-0.08 -0.23,-0.35 -0.29,-0.44 -0.05,-0.07 -0.1,-0.14 -0.15,-0.21 -0.79,-1.06 -1.92,-2.84 -1.31,-4.21 0.25,-0.56 0.71,-1.01 1.31,-1.15 0.48,-0.12 0.81,-0.07 1.25,0.11 0.67,0.27 1.18,1.07 1.18,1.83 0,0.57 -0.22,1.28 -0.48,1.79 -0.25,0.49 -0.56,0.96 -0.86,1.41 -0.1,0.16 -0.56,0.83 -0.63,0.88zm-2.32 -4.2c0,0.95 0.16,1.44 0.54,2.2 0.27,0.54 0.63,1.03 0.95,1.51 -0.27,0.02 -0.9,0.39 -0.9,0.81 0,0.4 0.23,0.61 0.56,0.78 0.65,0.33 1.73,0.33 2.38,0.01 0.63,-0.32 0.8,-0.88 0.25,-1.32 -0.11,-0.09 -0.41,-0.26 -0.58,-0.27 0.02,-0.1 0.41,-0.64 0.47,-0.75 0.59,-0.96 1.02,-1.67 1.02,-2.97 0,-0.82 -0.59,-1.7 -1.33,-2.04 -0.91,-0.42 -1.99,-0.25 -2.69,0.47 -0.15,0.15 -0.38,0.49 -0.45,0.67 -0.11,0.26 -0.22,0.54 -0.22,0.9z"/>
   <path class="fil1" d="M6.58 11.27l0.39 0 0 0.78c0,0.12 0.08,0.2 0.2,0.2l0.78 0c0.12,0 0.2,-0.08 0.2,-0.2l0 -0.78 0.39 0 0 1.95 -1.95 0 0 -1.95zm0.78 0l0.39 0 0 0.59 -0.39 0 0 -0.59zm-1.17 -0.2l0 2.34c0,0.12 0.08,0.2 0.2,0.2l2.34 0c0.12,0 0.2,-0.08 0.2,-0.2l0 -2.34c0,-0.12 -0.08,-0.2 -0.2,-0.2l-2.34 0c-0.12,0 -0.2,0.08 -0.2,0.2z"/>
   <path class="fil1" d="M11.27 8.73l0.39 0 0 0.78c0,0.12 0.08,0.2 0.2,0.2l0.78 0c0.12,0 0.2,-0.08 0.2,-0.2l0 -0.78 0.39 0 0 1.95 -1.95 0 0 -1.95zm0.78 0l0.39 0 0 0.59 -0.39 0 0 -0.59zm-1.17 -0.2l0 2.34c0,0.12 0.08,0.2 0.2,0.2l2.34 0c0.12,0 0.2,-0.08 0.2,-0.2l0 -2.34c0,-0.12 -0.08,-0.2 -0.2,-0.2l-2.34 0c-0.12,0 -0.2,0.08 -0.2,0.2z"/>
   <path class="fil1" d="M1.89 8.73l0.39 0 0 0.78c0,0.12 0.08,0.2 0.2,0.2l0.78 0c0.12,0 0.2,-0.08 0.2,-0.2l0 -0.78 0.39 0 0 1.95 -1.95 0 0 -1.95zm0.78 0l0.39 0 0 0.59 -0.39 0 0 -0.59zm-1.17 -0.2l0 2.34c0,0.12 0.08,0.2 0.2,0.2l2.34 0c0.12,0 0.2,-0.08 0.2,-0.2l0 -2.34c0,-0.12 -0.08,-0.2 -0.2,-0.2l-2.34 0c-0.12,0 -0.2,0.08 -0.2,0.2z"/>
   <path class="fil1" d="M6.38 4.82c0,-1.2 1.68,-1.65 2.23,-0.5 0.44,0.92 -0.49,2.01 -1.53,1.56 -0.42,-0.18 -0.7,-0.62 -0.7,-1.06zm-0.39 -0.1l0 0.2c0,0.74 0.73,1.47 1.47,1.47l0.2 0c0.74,0 1.47,-0.73 1.47,-1.47l0 -0.2c0,-0.74 -0.73,-1.47 -1.47,-1.47l-0.2 0c-0.74,0 -1.47,0.73 -1.47,1.47z"/>
   <path class="fil1" d="M7.41 4.82c0.09,-0.02 0.07,-0.05 0.15,-0.1 0.08,0.05 0.05,0.07 0.15,0.1 -0.04,0.14 -0.05,-0.01 -0.05,0.2l-0.2 0c0,-0.12 0.01,-0.08 -0.05,-0.2zm-0.63 -0.15c0,0.2 0.25,0.31 0.27,0.39 0.02,0.09 -0.21,0.54 0.17,0.54 0.14,0 0.22,-0.15 0.34,-0.15 0.13,0 0.18,0.15 0.37,0.15 0.34,0 0.13,-0.47 0.15,-0.54 0.02,-0.08 0.27,-0.19 0.27,-0.39 0,-0.28 -0.32,-0.16 -0.45,-0.25 -0.12,-0.09 -0.1,-0.38 -0.33,-0.38 -0.23,0 -0.21,0.29 -0.33,0.38 -0.13,0.1 -0.45,-0.03 -0.45,0.25z"/>
   <path class="fil1" d="M9.46 12.22c0.02,0.04 0.07,0.32 0.07,0.39 0.12,0 0.25,-0.04 0.38,-0.06 0.15,-0.03 0.24,-0.05 0.38,-0.09 0.52,-0.13 1.14,-0.37 1.6,-0.65 0.1,-0.06 0.19,-0.12 0.29,-0.18 -0.04,-0.08 -0.05,-0.09 -0.11,-0.16 -0.04,-0.06 -0.1,-0.12 -0.11,-0.18 -0.16,0.08 -0.29,0.2 -0.54,0.32 -0.46,0.23 -1.46,0.57 -1.95,0.61z"/>
   <path class="fil1" d="M2.94 11.63c0.18,0.1 0.34,0.22 0.57,0.33 0.43,0.21 1.62,0.64 2.07,0.64 0.01,-0.07 0.05,-0.35 0.07,-0.39 -0.5,-0.04 -1.5,-0.38 -1.95,-0.61 -0.24,-0.12 -0.38,-0.23 -0.54,-0.32 -0.02,0.08 -0.16,0.22 -0.22,0.34z"/>
   <path class="fil1" d="M3.11 7.58c0.02,0.07 0.16,0.25 0.22,0.34 0.47,-0.31 1.52,-0.8 2.12,-0.85 -0.01,-0.13 -0.07,-0.25 -0.07,-0.39 -0.29,0 -1.21,0.32 -1.51,0.47 -0.34,0.17 -0.42,0.2 -0.77,0.43z"/>
   <path class="fil1" d="M9.85 7.07c0.18,0.04 0.4,0.09 0.58,0.15 0.44,0.14 0.65,0.22 1.05,0.42 0.18,0.09 0.31,0.2 0.47,0.29 0.02,-0.08 0.16,-0.22 0.22,-0.34 -0.09,-0.05 -0.15,-0.1 -0.24,-0.15 -0.23,-0.14 -0.53,-0.29 -0.78,-0.39 -0.26,-0.11 -0.95,-0.34 -1.22,-0.36 -0,0.15 -0.06,0.26 -0.07,0.39z"/>
   <path class="fil1" d="M9.34 2.75l0.26 0.27c0.11,-0.03 0.16,-0.12 0.23,-0.2 0.08,-0.08 0.16,-0.14 0.21,-0.23l-0.27 -0.26 -0.43 0.41z"/>
   <polygon class="fil1" points="5.06,2.62 5.48,3.02 5.76,2.75 5.35,2.34 "/>
   <polygon class="fil1" points="7.36,2.09 7.75,2.09 7.75,1.5 7.36,1.5 "/>
   <polygon class="fil1" points="4.24,5.02 4.82,5.02 4.82,4.63 4.24,4.63 "/>
   <polygon class="fil1" points="10.29,5.02 10.88,5.02 10.88,4.63 10.29,4.63 "/>
  </g>
 </g>
</svg>
