<?xml version="1.0" encoding="UTF-8"?>
<!DOCTYPE svg PUBLIC "-//W3C//DTD SVG 1.1//EN" "http://www.w3.org/Graphics/SVG/1.1/DTD/svg11.dtd">
<!-- Creator: CorelDRAW -->
<svg xmlns="http://www.w3.org/2000/svg" xml:space="preserve" width="16.9333mm" height="16.9333mm" version="1.1" style="shape-rendering:geometricPrecision; text-rendering:geometricPrecision; image-rendering:optimizeQuality; fill-rule:evenodd; clip-rule:evenodd"
viewBox="0 0 14.54 14.54"
 xmlns:xlink="http://www.w3.org/1999/xlink"
 xmlns:xodm="http://www.corel.com/coreldraw/odm/2003">
 <defs>
  <style type="text/css">
   <![CDATA[
    .fil0 {fill:none}
    .fil1 {fill:black}
   ]]>
  </style>
 </defs>
 <g id="Layer_x0020_1">
  <metadata id="CorelCorpID_0Corel-Layer"/>
  <circle class="fil0" cx="7.27" cy="7.27" r="7.27"/>
  <g id="_105553195168352">
   <path class="fil1" d="M3.91 11.83l6.72 0c0.24,0 0.46,0.15 0.51,0.34l-7.74 0c0.05,-0.19 0.27,-0.34 0.51,-0.34zm-1.4 -2.25l0 -5.36c0,-0.33 0.22,-0.55 0.55,-0.55l8.42 0c0.33,0 0.55,0.23 0.55,0.55l0 5.36c0,0.33 -0.23,0.55 -0.55,0.55l-8.42 0c-0.33,0 -0.55,-0.23 -0.55,-0.55zm-0.34 -5.46l0 5.57c0,0.28 0.19,0.52 0.36,0.64 0.25,0.18 0.44,0.15 0.85,0.15 0.67,0 1.33,0 2,0 -0.02,0.26 -0.21,0.54 -0.37,0.67 -0.13,0.11 -0.57,0.33 -0.7,0.34 -0.43,0.06 -0.56,-0.09 -0.91,0.13 -0.4,0.26 -0.53,0.89 -0.22,0.89l8.16 0c0.31,0 0.18,-0.63 -0.22,-0.89 -0.35,-0.23 -0.48,-0.07 -0.91,-0.13 -0.06,-0.01 -0.3,-0.12 -0.36,-0.15 -0.35,-0.16 -0.67,-0.45 -0.7,-0.87 0.67,0 1.33,0 2,0 0.41,0 0.6,0.03 0.85,-0.15 0.17,-0.12 0.36,-0.36 0.36,-0.64l0 -5.57c0,-0.39 -0.39,-0.79 -0.79,-0.79l-8.63 0c-0.39,0 -0.79,0.39 -0.79,0.79z"/>
   <path class="fil1" d="M3.36 6.68l0 -1.04c0.15,-0.08 1.32,-0.74 1.36,-0.74 0.04,0 1.21,0.67 1.36,0.74l0 1.17c-0.34,-0.23 -0.57,-0.81 -0.85,-0.51 -0.11,0.12 -0.26,0.35 -0.37,0.42 -0.02,-0.09 -0.49,-0.55 -0.58,-0.67 -0.2,-0.25 -0.31,-0.23 -0.45,-0.02l-0.47 0.65zm-0.34 -1.15l0 1.7c0,0.15 0.19,0.22 0.37,0.31 0.08,0.04 0.13,0.07 0.22,0.12 0.19,0.1 1,0.59 1.11,0.59 0.1,0 0.8,-0.41 0.89,-0.47 0.04,-0.02 0.07,-0.03 0.11,-0.06l0.55 -0.3c0.08,-0.04 0.15,-0.08 0.15,-0.19l0 -1.7c0,-0.15 -0.19,-0.22 -0.37,-0.31l-1.09 -0.61c-0.23,-0.13 -0.25,-0.13 -0.48,0l-1.09 0.61c-0.09,0.04 -0.14,0.08 -0.22,0.12 -0.08,0.04 -0.15,0.08 -0.15,0.19z"/>
   <path class="fil1" d="M7.78 5.2c0,0.22 0.25,0.17 0.51,0.17l0 0.85c0,0.1 0.07,0.17 0.17,0.17l1.02 0c0.1,0 0.17,-0.07 0.17,-0.17l0 -0.85c0.26,0 0.51,0.05 0.51,-0.17 0,-0.13 -0.45,-0.53 -0.56,-0.63 -0.1,-0.1 -0.19,-0.19 -0.3,-0.3 -0.4,-0.4 -0.3,-0.37 -0.97,0.3 -0.1,0.1 -0.19,0.19 -0.3,0.3 -0.07,0.07 -0.26,0.21 -0.26,0.33z"/>
   <path class="fil1" d="M10.67 7.07l0 2.55c0,0.1 0.07,0.17 0.17,0.17l0.68 0c0.1,0 0.17,-0.07 0.17,-0.17l0 -2.55c0,-0.1 -0.07,-0.17 -0.17,-0.17l-0.68 0c-0.1,0 -0.17,0.07 -0.17,0.17z"/>
   <path class="fil1" d="M10.67 5.71c0,0.2 0.19,0.17 0.38,0.17l-0.81 0.64c-0.65,0.5 -0.35,0.36 -1.35,0.54 -0.13,0.02 -0.95,0.16 -1.03,0.2 -0.07,0.04 -0.17,0.13 -0.24,0.19l-0.68 0.57c-0.08,0.07 -0.19,0.11 -0.19,0.24 0,0.1 0.07,0.17 0.17,0.17 0.11,0 0.38,-0.25 0.47,-0.33 0.07,-0.07 0.14,-0.12 0.22,-0.18 0.08,-0.06 0.14,-0.13 0.22,-0.18 0.07,-0.06 0.14,-0.14 0.24,-0.16 0.3,-0.07 1.31,-0.23 1.71,-0.31 0.22,-0.04 1.16,-0.87 1.41,-1.04 -0.01,0.1 -0.08,0.34 0.15,0.34 0.18,0 0.19,-0.22 0.23,-0.37 0.19,-0.76 0.23,-0.65 -0.74,-0.65 -0.1,0 -0.17,0.07 -0.17,0.17z"/>
   <path class="fil1" d="M9.31 7.92l0 1.7c0,0.1 0.07,0.17 0.17,0.17l0.68 0c0.1,0 0.17,-0.07 0.17,-0.17l0 -1.7c0,-0.1 -0.07,-0.17 -0.17,-0.17l-0.68 0c-0.1,0 -0.17,0.07 -0.17,0.17z"/>
   <path class="fil1" d="M7.95 8.43l0 1.19c0,0.1 0.07,0.17 0.17,0.17l0.68 0c0.1,0 0.17,-0.07 0.17,-0.17l0 -1.19c0,-0.1 -0.07,-0.17 -0.17,-0.17l-0.68 0c-0.1,0 -0.17,0.07 -0.17,0.17z"/>
   <path class="fil1" d="M6.59 8.94l0 0.68c0,0.1 0.07,0.17 0.17,0.17l0.68 0c0.1,0 0.17,-0.07 0.17,-0.17l0 -0.68c0,-0.1 -0.07,-0.17 -0.17,-0.17l-0.68 0c-0.1,0 -0.17,0.07 -0.17,0.17z"/>
   <path class="fil1" d="M3.19 8.94c0,0.1 0.07,0.17 0.17,0.17l2.55 0c0.23,0 0.23,-0.34 0,-0.34l-2.55 0c-0.1,0 -0.17,0.07 -0.17,0.17z"/>
   <path class="fil1" d="M3.19 9.62c0,0.1 0.07,0.17 0.17,0.17l2.55 0c0.23,0 0.23,-0.34 0,-0.34l-2.55 0c-0.1,0 -0.17,0.07 -0.17,0.17z"/>
   <path class="fil1" d="M4.55 5.49c0,0.51 0.68,0.51 0.68,0 0,-0.15 -0.15,-0.3 -0.38,-0.3 -0.13,0 -0.3,0.16 -0.3,0.3z"/>
   <path class="fil1" d="M3.02 4.35c0,0.23 0.34,0.23 0.34,0 0,-0.23 -0.34,-0.23 -0.34,0z"/>
  </g>
 </g>
</svg>
