<?xml version="1.0" encoding="UTF-8"?>
<!DOCTYPE svg PUBLIC "-//W3C//DTD SVG 1.1//EN" "http://www.w3.org/Graphics/SVG/1.1/DTD/svg11.dtd">
<!-- Creator: CorelDRAW -->
<svg xmlns="http://www.w3.org/2000/svg" xml:space="preserve" width="16.9333mm" height="16.9333mm" version="1.1" style="shape-rendering:geometricPrecision; text-rendering:geometricPrecision; image-rendering:optimizeQuality; fill-rule:evenodd; clip-rule:evenodd"
viewBox="0 0 14.82 14.82"
 xmlns:xlink="http://www.w3.org/1999/xlink"
 xmlns:xodm="http://www.corel.com/coreldraw/odm/2003">
 <defs>
  <style type="text/css">
   <![CDATA[
    .fil0 {fill:none}
    .fil1 {fill:black}
   ]]>
  </style>
 </defs>
 <g id="Layer_x0020_1">
  <metadata id="CorelCorpID_0Corel-Layer"/>
  <g id="_105553188010592">
   <circle class="fil0" cx="7.41" cy="7.41" r="7.41"/>
   <g>
    <path class="fil1" d="M8.03 11.48c-0.15,0 -0.12,-0.24 -0.12,-0.4 0,-0.68 0.03,-2.04 0,-2.61 -0.01,-0.31 -0.37,-0.46 -0.62,-0.29 -0.19,0.12 -0.23,0.47 -0.28,0.76l-0.5 2.41c-0.06,0.16 -0.2,0.11 -0.21,-0.01l0.22 -1.12c0.11,-0.57 0.29,-1.33 0.36,-1.9l-0.02 -1.48c0,-0.42 0.06,-0.62 -0.22,-0.62 -0.25,0 -0.17,0.41 -0.17,0.84 0,0.17 -0,0.35 0,0.52 0,0.14 0.04,0.42 -0.1,0.42 -0.08,0 -0.1,-0.07 -0.1,-0.15l0 -1.96c0,-0.45 0.71,-0.4 0.99,-0.4 1.26,0 1.04,-0.15 1.83,-0.95 0.07,-0.07 0.09,-0.12 0.16,-0.19 0.06,-0.06 0.12,-0.11 0.17,-0.18l0.12 -0.13c0.09,-0.09 0.16,-0.22 0.25,-0.22 0.32,0 -0.29,0.56 -0.35,0.64l-0.27 0.32c-0.05,0.06 -0.1,0.09 -0.15,0.15l-0.7 0.79c-0.06,0.06 -0.1,0.1 -0.14,0.16 -0.07,0.1 -0.05,0.08 -0.05,0.25 0.02,1.69 -0.02,3.43 0,5.12 0,0.11 0.01,0.22 -0.1,0.22zm1.59 -8.87l0 -0.79c0.6,0 0.81,-0.2 1.09,-0.2 0.09,0 0.05,0.02 0.15,0.02l0 0.79c-0.67,0 -0.48,0.09 -0.96,0.18 -0.17,0.03 -0.13,-0 -0.28,-0zm0.17 -1.19c-0.25,0 -0.41,-0.21 -0.54,-0.02 -0.07,0.09 -0.03,1.59 -0.03,1.73 0,0.94 0.11,0.52 -0.65,1.38 -0.56,0.64 -0.41,0.58 -1.46,0.58 -0.12,0 -0.39,-0.01 -0.49,0.01 -0.03,0 -0.14,0.04 -0.19,0.06 -0.07,0.03 -0.13,0.05 -0.19,0.09 -0.18,0.12 -0.38,0.35 -0.38,0.64l0 2.01c0,0.18 0.09,0.27 0.18,0.37 0.13,0.13 0.18,0.13 0.42,0.13l-0.57 2.81c-0.11,0.52 0.46,0.86 0.83,0.53 0.13,-0.11 0.15,-0.21 0.19,-0.39l0.49 -2.34c0.02,-0.09 0.03,-0.14 0.05,-0.23 0.02,-0.08 0.02,-0.16 0.07,-0.23l-0 2.86c0,0.52 0.63,0.67 0.92,0.28 0.12,-0.16 0.09,-0.3 0.09,-0.55l0 -4.45c0,-0.35 -0.08,-0.49 0.1,-0.7l1.44 -1.62c0.15,-0.15 0.23,-0.22 0.23,-0.47 0,-0.34 -0.28,-0.54 -0.67,-0.45l0 -0.45c0.77,0 0.7,-0.17 1.12,-0.17 0.12,0 0.52,0.26 0.52,-0.1l0 -1.22c0,-0.2 -0.32,-0.3 -0.52,-0.3 -0.2,0 -0.32,0.04 -0.49,0.08 -0.12,0.04 -0.32,0.11 -0.46,0.11z"/>
    <path class="fil1" d="M2.02 8.7l0 1.54c-0.12,0 -0.27,-0.01 -0.27,-0.2l0 -1.71c0,-0.19 0.13,-0.4 0.32,-0.4l2.21 0c0.15,0 0.32,0.17 0.32,0.32l0 1.84c0,0.13 -0.17,0.15 -0.27,0.15l0 -1.56c0,-0.11 -0.08,-0.2 -0.17,-0.2 -0.25,0 -0.22,0.18 -0.22,0.42l0 3.88c0,0.57 -0.51,0.44 -0.55,0.2l-0 -2.53c0,-0.19 -0.02,-0.27 -0.22,-0.27 -0.27,0 -0.2,0.4 -0.2,0.67l-0 2.16c-0.02,0.19 -0.31,0.3 -0.48,0.08 -0.11,-0.14 -0.07,-0.66 -0.07,-0.9l-0 -3.55c-0.04,-0.22 -0.4,-0.2 -0.4,0.07zm-0.67 -0.4l0 1.79c0,0.28 0.27,0.55 0.55,0.55l0.12 0 0 2.26c0,0.36 0.27,0.7 0.62,0.7 0.32,0 0.29,-0 0.55,-0.17 0.22,0.12 0.41,0.24 0.75,0.1 0.2,-0.08 0.39,-0.31 0.39,-0.6l0 -2.29c0.19,0 0.35,-0.03 0.48,-0.14 0.09,-0.08 0.19,-0.22 0.19,-0.38l0 -1.86c0,-0.43 -0.38,-0.75 -0.84,-0.75l-1.91 0c-0.29,0 -0.47,0.07 -0.63,0.21l-0.05 0.05c-0.13,0.14 -0.21,0.33 -0.21,0.53z"/>
    <path class="fil1" d="M10.46 8.68l0 1.56c-0.12,0 -0.25,0.01 -0.25,-0.17l0 -1.81c0,-0.08 0.05,-0.16 0.09,-0.21 0.03,-0.03 0.13,-0.12 0.18,-0.12l2.26 0c0.19,0 0.32,0.2 0.32,0.4l0 1.66c0,0.2 -0.08,0.25 -0.27,0.25l0 -1.54c0,-0.12 -0.08,-0.22 -0.2,-0.22 -0.24,0 -0.2,0.2 -0.2,0.42l0 3.85c0,0.61 -0.49,0.45 -0.56,0.23 -0.04,-0.13 -0.01,-1.84 -0.01,-2.1 0,-0.44 0.09,-0.72 -0.22,-0.72 -0.24,0 -0.17,0.32 -0.17,0.7 0,0.27 0.02,2.01 -0.02,2.14 -0.09,0.29 -0.55,0.27 -0.55,-0.13l0 -2.19c0,-0.12 0.03,-0.18 0.02,-0.27 -0.03,-0.52 -0.02,-0.97 -0.02,-1.49 0,-0.21 0.03,-0.45 -0.17,-0.45 -0.13,0 -0.22,0.06 -0.22,0.2zm-0.65 -0.42l0 1.91c0,0.17 0.23,0.47 0.57,0.47l0.07 0 0 2.29c0,0.41 0.29,0.67 0.72,0.67 0.25,0 0.33,-0.1 0.47,-0.2 0.22,0.33 1.14,0.26 1.14,-0.52l0 -2.24c0.22,0 0.36,-0.05 0.47,-0.15 0.09,-0.08 0.2,-0.25 0.2,-0.42l0 -1.76c0,-0.25 -0.12,-0.46 -0.26,-0.58 -0.17,-0.15 -0.33,-0.21 -0.63,-0.21l-1.91 0c-0.46,0 -0.84,0.32 -0.84,0.75z"/>
    <path class="fil1" d="M5.64 12.65l3.58 0 0 0.52 -3.58 0 0 -0.52zm-0.4 -0.2l0 0.94c0,0.15 0.13,0.2 0.27,0.2l3.78 0c0.22,0 0.32,-0.06 0.32,-0.27l0 -0.84c0,-0.14 -0.09,-0.22 -0.22,-0.22l-3.9 0c-0.15,0 -0.25,0.05 -0.25,0.2z"/>
    <path class="fil1" d="M3.11 5.69c0.87,0 0.56,1.09 0.05,1.09 -0.24,0 -0.45,-0.31 -0.48,-0.54 -0.03,-0.26 0.12,-0.55 0.43,-0.55zm-0.84 0.47c0,0.84 0.98,1.38 1.52,0.72 0.67,-0.83 -0.01,-1.65 -0.64,-1.61 -0.47,0.03 -0.87,0.47 -0.87,0.89z"/>
    <path class="fil1" d="M11.63 6.79c-0.25,0 -0.5,-0.32 -0.5,-0.62 0,-0.45 0.54,-0.61 0.84,-0.34 0.36,0.33 -0,0.96 -0.34,0.96zm-0.89 -0.65c0,0.29 0.1,0.56 0.27,0.73 0.83,0.85 1.77,-0.22 1.44,-1.05 -0.03,-0.07 -0.12,-0.21 -0.18,-0.27 -0.34,-0.34 -0.89,-0.37 -1.25,-0.03 -0.13,0.13 -0.28,0.37 -0.28,0.62z"/>
    <path class="fil1" d="M6.96 4.06l0 -0.12c0,-0.2 0.25,-0.39 0.45,-0.39 0.59,0 0.59,0.91 0,0.91 -0.25,0 -0.45,-0.22 -0.45,-0.4zm-0.4 -0.12c0,0.29 0.01,0.45 0.25,0.69 0.53,0.52 1.44,0.09 1.44,-0.52l0 -0.17c0,-0.44 -0.4,-0.79 -0.84,-0.79 -0.44,0 -0.84,0.36 -0.84,0.79z"/>
   </g>
  </g>
 </g>
</svg>
