<?xml version="1.0" encoding="UTF-8"?>
<!DOCTYPE svg PUBLIC "-//W3C//DTD SVG 1.1//EN" "http://www.w3.org/Graphics/SVG/1.1/DTD/svg11.dtd">
<!-- Creator: CorelDRAW -->
<svg xmlns="http://www.w3.org/2000/svg" xml:space="preserve" width="16.9333mm" height="16.9333mm" version="1.1" style="shape-rendering:geometricPrecision; text-rendering:geometricPrecision; image-rendering:optimizeQuality; fill-rule:evenodd; clip-rule:evenodd"
viewBox="0 0 13.59 13.59"
 xmlns:xlink="http://www.w3.org/1999/xlink"
 xmlns:xodm="http://www.corel.com/coreldraw/odm/2003">
 <defs>
  <style type="text/css">
   <![CDATA[
    .fil0 {fill:none}
    .fil1 {fill:black}
   ]]>
  </style>
 </defs>
 <g id="Layer_x0020_1">
  <metadata id="CorelCorpID_0Corel-Layer"/>
  <circle class="fil0" cx="6.79" cy="6.79" r="6.79"/>
  <g id="_105553188567200">
   <path class="fil1" d="M6.35 11.34l-3.78 0c-0.1,0 -0.21,-0.1 -0.21,-0.21l0 -1.76 4.12 0c0.05,0 0.06,0.01 0.06,0.06l0 1.64c0,0.13 -0.07,0.27 -0.21,0.27zm-0.21 -2.95l0.41 0 0 0.68 -0.86 0c0.04,-0.07 0.06,-0.09 0.11,-0.16 0.04,-0.06 0.07,-0.11 0.12,-0.17l0.23 -0.35zm-3.41 0.68l-0.37 0 0 -0.68 0.86 0c-0.02,0.08 -0.07,0.11 -0.11,0.18l-0.23 0.34c-0.03,0.05 -0.08,0.16 -0.15,0.16zm2.59 0l-0.9 0c0.08,-0.11 0.15,-0.22 0.23,-0.33l0.23 -0.35 0.9 0c-0.1,0.19 -0.35,0.49 -0.45,0.68zm-1.27 0l-0.9 0 0.34 -0.5c0.04,-0.06 0.09,-0.1 0.11,-0.18l0.9 0c-0.06,0.11 -0.14,0.23 -0.22,0.33l-0.23 0.34zm-1.85 -1.52c0,-0.18 0.23,-0.25 0.33,-0.25 0.02,0 0.28,0.23 0.31,0.26 0.1,0.09 0.23,0.17 0.3,0.27l-0.82 0.23c-0.03,-0.06 -0.12,-0.43 -0.12,-0.51zm0.7 -0.35l0.86 -0.23 0.62 0.53 -0.86 0.23c-0,0 -0.57,-0.47 -0.62,-0.53zm1.23 -0.33l0.86 -0.23 0.62 0.53 -0.86 0.23c-0.02,0 -0.28,-0.23 -0.31,-0.26l-0.15 -0.13c-0.07,-0.06 -0.09,-0.06 -0.15,-0.14zm1.23 -0.33c0.05,-0.03 0.57,-0.16 0.68,-0.16 0.27,0 0.24,0.41 0.33,0.6 -0.62,0.15 -0.25,0.16 -0.9,-0.33 -0.05,-0.04 -0.07,-0.05 -0.1,-0.1zm-3.47 0.96c0,0.49 0.16,0.37 0.16,1.13l0 2.34c-0,0.23 0,0.34 0.11,0.47 0.08,0.1 0.22,0.21 0.38,0.21l3.8 0c0.29,0 0.51,-0.27 0.51,-0.57l0 -2.81c0,-0.17 -0.12,-0.17 -0.29,-0.16l-3.18 0c0.06,-0.04 0.2,-0.07 0.28,-0.09l2.94 -0.79c0.16,-0.08 0.06,-0.28 -0.01,-0.54 -0.09,-0.31 -0.15,-0.61 -0.6,-0.61 -0.15,0 -0.92,0.23 -1.1,0.27 -0.35,0.09 -2.63,0.69 -2.72,0.74 -0.13,0.07 -0.28,0.23 -0.28,0.42z"/>
   <path class="fil1" d="M8.34 7.46l0.86 0c-0.05,0.07 -0.09,0.1 -0.21,0.1l-0.43 0c-0.11,0 -0.18,-0.04 -0.23,-0.1zm1.29 -0.31l-1.72 0c-0.08,0 -0.06,-0.07 -0.06,-0.14 0.21,-0.05 1.47,-0.02 1.79,-0.02 0.11,0 0.11,0.16 0,0.16zm0.06 -0.47l-1.73 0c-0.14,-0 -0.12,-0.01 -0.12,-0.15 0.21,-0.05 1.43,-0.02 1.74,-0.02 0.13,0 0.14,0.07 0.1,0.16zm-0.08 -0.47l-1.66 0c-0.08,0 -0.44,-0.57 -0.49,-0.66 -0.23,-0.42 -0.29,-0.55 -0.29,-1.04 0,-1.05 1.31,-2.03 2.54,-1.22 0.36,0.24 0.69,0.75 0.69,1.31 0,0.42 -0.19,0.79 -0.39,1.09 -0.04,0.07 -0.07,0.12 -0.12,0.19 -0.06,0.09 -0.21,0.34 -0.28,0.34zm-2.75 -1.72c0,0.46 0.06,0.72 0.28,1.11 0.15,0.27 0.32,0.49 0.48,0.73 -0.03,0.13 -0.08,0.06 -0.08,0.31 0,0.12 0.06,0.14 0.05,0.2 0,0 -0.26,0.62 0.38,0.62 0.32,0.48 0.36,0.41 1.05,0.41 0.15,0 0.27,-0.06 0.35,-0.12 0.06,-0.04 0.18,-0.21 0.2,-0.29 0.36,0 0.51,-0.24 0.43,-0.49 -0.05,-0.18 -0.08,-0.06 -0.01,-0.22 0.07,-0.17 0.03,-0.28 -0.07,-0.42 0.08,-0.06 0.43,-0.62 0.5,-0.75 0.36,-0.72 0.41,-1.35 -0.05,-2.06 -0.07,-0.11 -0.14,-0.18 -0.23,-0.27 -0.67,-0.67 -1.65,-0.77 -2.44,-0.25 -0.06,0.04 -0.08,0.05 -0.13,0.1 -0.23,0.21 -0.36,0.31 -0.52,0.65 -0.09,0.18 -0.19,0.47 -0.19,0.73z"/>
   <path class="fil1" d="M7.56 10.93l0 -2.05c0,-0.19 0.06,-0.41 0.27,-0.41l2.36 0c0.13,0 0.27,0.14 0.27,0.27l0 2.34c0,0.13 -0.14,0.27 -0.27,0.27l-2.36 0c-0.08,0 -0.17,-0.07 -0.21,-0.12 -0.04,-0.06 -0.06,-0.18 -0.06,-0.29zm-0.29 -2.24l0 2.42c0,0.25 0.26,0.53 0.57,0.53l2.36 0c0.26,0 0.55,-0.29 0.55,-0.55l0 -2.38c0,-0.26 -0.29,-0.55 -0.55,-0.55l-2.36 0c-0.16,0 -0.31,0.08 -0.4,0.16 -0.07,0.07 -0.18,0.25 -0.18,0.37z"/>
   <path class="fil1" d="M4.44 5.76l-2.03 0c-0.1,0 -0.21,-0.1 -0.21,-0.21l0 -2.03c0,-0.16 0.17,-0.23 0.33,-0.23l1.76 0c0.25,0 0.37,0.07 0.37,0.33l0 1.83c0,0.17 -0.07,0.31 -0.23,0.31zm-2.54 -2.26l0 2.07c0,0.24 0.25,0.49 0.49,0.49l2.07 0c0.31,0 0.51,-0.29 0.51,-0.66l0 -1.79c0,-0.21 -0.08,-0.39 -0.19,-0.49 -0.13,-0.11 -0.29,-0.15 -0.53,-0.15l-1.62 0c-0.21,0 -0.38,0.02 -0.51,0.11 -0.11,0.08 -0.23,0.23 -0.23,0.4z"/>
   <path class="fil1" d="M8.44 5.39l0 -1.05c0.15,0.08 0.3,0.17 0.46,0.26 0.08,0.04 0.14,0.09 0.22,0.13 0.06,0.03 0.19,0.1 0.23,0.14l-0.45 0.25c-0.15,0.09 -0.3,0.18 -0.46,0.26zm-0.31 -1.31l0 1.6c0,0.08 0.11,0.18 0.27,0.09 0.04,-0.02 0.06,-0.04 0.1,-0.06l0.97 -0.56c0.1,-0.06 0.33,-0.15 0.32,-0.28 -0,-0.12 -0.21,-0.21 -0.33,-0.27 -0.16,-0.09 -1.12,-0.67 -1.2,-0.67 -0.08,0 -0.14,0.08 -0.14,0.16z"/>
   <path class="fil1" d="M8.71 10.74c-0.3,0 -0.32,-0.43 0,-0.43 0.27,0 0.27,0.43 0,0.43zm0.21 -0.7c-0.19,-0.04 -0.37,-0.1 -0.58,0.1 -0.32,0.29 -0.14,0.91 0.35,0.91 0.39,0 0.54,-0.3 0.53,-0.66 -0,-0.4 -0,-0.81 -0,-1.21 0.11,0.03 0.39,0.25 0.47,0.25 0.13,0 0.29,-0.18 0.02,-0.33 -0.07,-0.04 -0.13,-0.07 -0.21,-0.12 -0.06,-0.03 -0.39,-0.23 -0.43,-0.23 -0.23,0 -0.16,0.32 -0.16,0.55 0,0.25 0,0.49 0,0.74z"/>
   <path class="fil1" d="M2.92 4.55c0,-0.7 1.01,-0.65 1.01,-0.06l0 0.1c0,0.26 -0.23,0.45 -0.53,0.45 -0.24,0 -0.47,-0.24 -0.47,-0.49zm-0.31 -0.02c0,0.6 0.7,1.14 1.37,0.61 0.33,-0.26 0.35,-0.88 0.01,-1.19 -0.53,-0.49 -1.38,-0.1 -1.38,0.58z"/>
   <path class="fil1" d="M4.17 10.72l0 -0.68c0.12,0.06 0.53,0.31 0.59,0.33l-0.59 0.35zm-0.31 -0.84l0 1.05c0,0.11 0.06,0.23 0.16,0.23 0.04,0 0.81,-0.45 0.95,-0.53 0.28,-0.17 0.41,-0.23 0.01,-0.47 -0.14,-0.08 -0.86,-0.52 -0.96,-0.52 -0.14,0 -0.16,0.11 -0.16,0.25z"/>
   <path class="fil1" d="M5.47 4.75c0.19,0 0.72,0.03 0.81,-0.04 0.1,-0.08 0.08,-0.27 -0.15,-0.27l-0.64 0c-0.23,0 -0.24,0.31 -0.02,0.31z"/>
   <path class="fil1" d="M10.58 2.9c0.19,0 0.19,-0.07 0.41,-0.29 0.06,-0.06 0.29,-0.26 0.29,-0.34 0,-0.09 -0.06,-0.16 -0.14,-0.16 -0.11,0 -0.32,0.25 -0.44,0.36 -0.06,0.06 -0.15,0.14 -0.2,0.2 -0.07,0.09 -0.02,0.24 0.08,0.24z"/>
   <path class="fil1" d="M11.23 4.57c0,0.08 0.03,0.18 0.12,0.18l0.76 0c0.15,0 0.19,-0.31 -0.04,-0.31l-0.68 0c-0.07,0 -0.16,0.06 -0.16,0.12z"/>
   <path class="fil1" d="M8.63 1.28l0 0.74c0,0.13 0.31,0.23 0.31,-0.08l0 -0.64c0,-0.09 -0.06,-0.15 -0.13,-0.16l-0.07 0c-0.06,0.01 -0.11,0.06 -0.11,0.14z"/>
   <path class="fil1" d="M6.29 2.23c0,0.15 0.04,0.13 0.18,0.27 0.07,0.07 0.13,0.13 0.21,0.21 0.04,0.04 0.16,0.17 0.2,0.19 0.1,0.05 0.22,-0.04 0.22,-0.14 0,-0.11 -0.54,-0.66 -0.66,-0.66 -0.06,0 -0.14,0.07 -0.14,0.12z"/>
  </g>
 </g>
</svg>
