<?xml version="1.0" encoding="UTF-8"?>
<!DOCTYPE svg PUBLIC "-//W3C//DTD SVG 1.1//EN" "http://www.w3.org/Graphics/SVG/1.1/DTD/svg11.dtd">
<!-- Creator: CorelDRAW -->
<svg xmlns="http://www.w3.org/2000/svg" xml:space="preserve" width="16.9333mm" height="16.9333mm" version="1.1" style="shape-rendering:geometricPrecision; text-rendering:geometricPrecision; image-rendering:optimizeQuality; fill-rule:evenodd; clip-rule:evenodd"
viewBox="0 0 14.21 14.21"
 xmlns:xlink="http://www.w3.org/1999/xlink"
 xmlns:xodm="http://www.corel.com/coreldraw/odm/2003">
 <defs>
  <style type="text/css">
   <![CDATA[
    .fil0 {fill:none}
    .fil1 {fill:black}
   ]]>
  </style>
 </defs>
 <g id="Layer_x0020_1">
  <metadata id="CorelCorpID_0Corel-Layer"/>
  <g id="_105553196779232">
   <circle class="fil0" cx="7.1" cy="7.1" r="7.1"/>
   <g>
    <path class="fil1" d="M1.86 12.47c-0.16,0 -0.3,-0.08 -0.38,-0.17 -0.4,-0.42 0.15,-0.84 0.34,-1.02 0.17,-0.17 1.01,-1.03 1.11,-1.1l0.7 0.69c-0.08,0.12 -0.3,0.31 -0.41,0.42l-1.06 1.05c-0.05,0.04 -0.23,0.12 -0.3,0.12zm1.56 -2.38l0.22 -0.24 0.31 0.3 -0.22 0.24 -0.31 -0.3zm-0.09 -2.19c0,-0.18 0.04,-0.43 0.07,-0.57 0.03,-0.16 0.1,-0.34 0.16,-0.48 0.29,-0.7 1.03,-1.3 1.78,-1.45 0.9,-0.18 1.75,0.05 2.4,0.69 1.96,1.96 -0.16,5.31 -2.88,4.17 -0.53,-0.22 -1.07,-0.76 -1.29,-1.29 -0.06,-0.15 -0.13,-0.32 -0.16,-0.48 -0.03,-0.15 -0.07,-0.4 -0.07,-0.57zm6.31 -2.19l0.1 0c0,0.15 0.02,0.24 0.03,0.4 0.02,0.36 0.1,0.84 0.1,1.19l-0.35 0c0,-0.42 0.12,-1.17 0.12,-1.59zm0.52 0.07c0.15,0.07 0.29,0.12 0.43,0.22 0.4,0.3 0.69,0.75 0.69,1.3l-0.99 0 -0.12 -1.52zm-1.07 1.52l-0.25 0c-0.1,-0.43 -0.2,-0.62 -0.4,-0.99 0.11,-0.08 0.43,-0.47 0.77,-0.5 0,0.28 -0.1,1.18 -0.12,1.49zm1.79 -2.68l0 -0.1 0.94 0c0.38,0 0.65,0.27 0.65,0.65l0 2.29c0,0.69 -0.64,0.64 -0.97,0.64 -0.15,0 -0.18,0.06 -0.28,0.12 -0.14,0.1 -0.66,0.45 -0.74,0.48l0 -0.6 -1.59 0 0 -0.4 2.78 0c0,-0.61 0.02,-1.07 -0.39,-1.59 -0.13,-0.17 -0.2,-0.24 -0.37,-0.38 -0.1,-0.09 -0.34,-0.23 -0.48,-0.27l0.16 -0.17c0.15,-0.18 0.29,-0.4 0.29,-0.68zm-3.33 -0.1l0.94 0c0,0.25 0.03,0.39 0.15,0.59 0.15,0.25 0.24,0.28 0.29,0.35 -0.12,0.03 -0.31,0.14 -0.41,0.21 -0.2,0.14 -0.26,0.23 -0.34,0.28 -0.11,-0.07 -0.27,-0.28 -0.57,-0.5 -0.16,-0.12 -0.51,-0.32 -0.72,-0.37 0.04,-0.07 0.03,-0.14 0.07,-0.23 0.03,-0.06 0.08,-0.13 0.13,-0.17 0.1,-0.09 0.27,-0.17 0.45,-0.17zm-3.48 -1.19l0.1 0c0,0.42 0.12,1.19 0.12,1.59l-0.35 0c0,-0.42 0.12,-1.17 0.12,-1.59zm4.82 1.24c-0.01,-0.06 0.04,-0.29 0.06,-0.34 0.15,-0.37 0.6,-0.61 1.03,-0.45 0.28,0.11 0.47,0.38 0.5,0.69 0.08,0.74 -1.05,1.22 -1.49,0.4l-0.09 -0.31zm-4.3 -1.17c0.36,0.17 0.5,0.21 0.77,0.54 0.17,0.21 0.34,0.6 0.34,0.97l-0.99 0 -0.12 -1.52zm-1.07 1.52l-0.99 0c0,-0.6 0.37,-1.15 0.88,-1.41 0.09,-0.04 0.16,-0.07 0.24,-0.11l-0.12 1.52zm1.79 -2.68l0 -0.1 0.94 0c0.38,0 0.65,0.27 0.65,0.65l0 1.49c0,0.1 -0.23,0.2 -0.33,0.49 -0.03,0.07 -0.04,0.15 -0.06,0.21 -0.11,-0.01 -0.29,-0.05 -0.4,-0.05 0,-0.48 -0.16,-0.9 -0.39,-1.2 -0.19,-0.24 -0.55,-0.57 -0.85,-0.64 0.08,-0.11 0.45,-0.37 0.45,-0.85zm-3.18 2.59l0 0.5 2.26 0 -0.4 0.29c-0.04,0.04 -0.08,0.1 -0.15,0.1l-1.86 0c-0.38,0 -0.65,-0.27 -0.65,-0.65l0 -2.29c0,-0.39 0.26,-0.65 0.65,-0.65l0.94 0c0,0.63 0.36,0.81 0.45,0.94 -0.57,0.13 -1.24,0.99 -1.24,1.74zm1.19 -2.64c-0.03,-0.15 0.07,-0.43 0.22,-0.58 0.14,-0.15 0.29,-0.24 0.54,-0.26 0.2,-0.02 0.43,0.07 0.57,0.21 0.15,0.14 0.24,0.29 0.26,0.54 0.04,0.39 -0.29,0.79 -0.75,0.83 -0.36,0.04 -0.73,-0.23 -0.82,-0.66 -0.02,-0.09 -0.01,-0.03 -0.02,-0.08zm-0.32 -0.45c-0.41,0 -1.12,-0.06 -1.43,0.06 -0.3,0.12 -0.63,0.46 -0.63,0.86l0 2.54c0,0.46 0.43,0.86 0.83,0.91l1.76 0.01c-0.45,0.67 -0.6,1.03 -0.6,1.94 0,0.55 0.25,1.14 0.47,1.47l-0.27 0.28 -0.2 -0.19c-0.11,0.08 -1.4,1.39 -1.61,1.6 -0.28,0.28 -0.38,0.39 -0.38,0.81 0,0.43 0.41,0.85 0.85,0.85 0.42,0 0.53,-0.1 0.81,-0.38 0.21,-0.21 1.52,-1.5 1.6,-1.61l-0.18 -0.19 0.27 -0.28c0.55,0.37 1.05,0.48 1.77,0.48 0.82,0 1.66,-0.49 2.16,-1.08 0.3,-0.36 0.52,-0.84 0.63,-1.31l1.24 0 0 0.97c0.28,-0.15 1.08,-0.74 1.41,-0.93 0.14,-0.08 0.3,-0.02 0.53,-0.04 0.42,-0.05 0.85,-0.46 0.85,-0.92l0 -2.54c0,-0.4 -0.33,-0.74 -0.63,-0.86 -0.31,-0.12 -1.02,-0.06 -1.43,-0.06 -0.01,-0.1 -0.09,-0.22 -0.15,-0.3 -0.07,-0.1 -0.12,-0.15 -0.22,-0.23 -0.44,-0.35 -1.06,-0.36 -1.49,-0.01 -0.17,0.14 -0.2,0.18 -0.31,0.36 -0.04,0.07 -0.06,0.09 -0.07,0.18l-1.27 0 0 -1.47c0,-0.4 -0.33,-0.74 -0.63,-0.86 -0.31,-0.12 -1.02,-0.06 -1.43,-0.06 -0.02,-0.29 -0.54,-0.8 -1.02,-0.8 -0.47,0 -0.76,0.1 -1.06,0.48 -0.06,0.08 -0.15,0.21 -0.16,0.32z"/>
    <path class="fil1" d="M8.89 12.65l0 -2.34c0,-0.12 0.1,-0.22 0.22,-0.22l3.53 0c0.12,0 0.22,0.1 0.22,0.22l0 2.34c0,0.12 -0.1,0.22 -0.22,0.22l-3.53 0c-0.12,0 -0.22,-0.1 -0.22,-0.22zm-0.4 -2.41l0 2.49c0,0.27 0.27,0.55 0.55,0.55l3.68 0c0.27,0 0.55,-0.27 0.55,-0.55l0 -2.49c0,-0.27 -0.27,-0.55 -0.55,-0.55l-3.68 0c-0.27,0 -0.55,0.27 -0.55,0.55z"/>
    <path class="fil1" d="M4.12 7.9c0,-0.24 0.08,-0.56 0.17,-0.73 0.21,-0.44 0.46,-0.68 0.89,-0.89 0.86,-0.41 1.9,-0.03 2.35,0.89 0.21,0.44 0.21,1.02 0,1.46 -0.68,1.41 -2.57,1.41 -3.25,0 -0.08,-0.17 -0.17,-0.49 -0.17,-0.73zm-0.4 -0.12c0,0.43 0.01,0.67 0.21,1.06 0.14,0.27 0.23,0.41 0.43,0.61 0.35,0.35 0.88,0.64 1.42,0.64 0.69,0 1.18,-0.15 1.67,-0.64 0.2,-0.2 0.29,-0.33 0.42,-0.59 0.53,-1.05 0.1,-2.36 -1.02,-2.93 -0.82,-0.41 -1.84,-0.23 -2.5,0.42 -0.2,0.2 -0.29,0.33 -0.42,0.59 -0.11,0.21 -0.22,0.52 -0.22,0.83z"/>
    <polygon class="fil1" points="9.29,12.47 12.47,12.47 12.47,12.08 12.08,12.08 12.08,10.88 11.68,10.88 11.68,12.08 11.28,12.08 11.28,11.28 10.88,11.28 10.88,12.08 10.49,12.08 10.49,11.68 10.09,11.68 10.09,12.08 9.69,12.08 9.69,10.48 9.29,10.48 "/>
    <polygon class="fil1" points="1.73,2.93 2.13,2.93 2.13,2.53 1.73,2.53 "/>
    <polygon class="fil1" points="1.73,3.72 2.13,3.72 2.13,3.33 1.73,3.33 "/>
    <polygon class="fil1" points="11.68,6.11 12.08,6.11 12.08,5.71 11.68,5.71 "/>
    <polygon class="fil1" points="11.68,5.31 12.08,5.31 12.08,4.92 11.68,4.92 "/>
   </g>
  </g>
 </g>
</svg>
