<?xml version="1.0" encoding="UTF-8"?>
<!DOCTYPE svg PUBLIC "-//W3C//DTD SVG 1.1//EN" "http://www.w3.org/Graphics/SVG/1.1/DTD/svg11.dtd">
<!-- Creator: CorelDRAW -->
<svg xmlns="http://www.w3.org/2000/svg" xml:space="preserve" width="16.9333mm" height="16.9333mm" version="1.1" style="shape-rendering:geometricPrecision; text-rendering:geometricPrecision; image-rendering:optimizeQuality; fill-rule:evenodd; clip-rule:evenodd"
viewBox="0 0 13.83 13.83"
 xmlns:xlink="http://www.w3.org/1999/xlink"
 xmlns:xodm="http://www.corel.com/coreldraw/odm/2003">
 <defs>
  <style type="text/css">
   <![CDATA[
    .fil0 {fill:none}
    .fil1 {fill:black}
   ]]>
  </style>
 </defs>
 <g id="Layer_x0020_1">
  <metadata id="CorelCorpID_0Corel-Layer"/>
  <g id="_105553193431264">
   <circle class="fil0" cx="6.91" cy="6.91" r="6.91"/>
   <g>
    <path class="fil1" d="M5.5 8.81l0.96 0.83c0.23,0.18 0.22,0.2 0.52,0.2 0.22,0 0.54,-0.31 0.71,-0.47l0.64 -0.56 1.14 0.97c0.04,0.03 0.05,0.04 0.09,0.07l1.22 1.05c0.12,0.11 0.13,0.09 0.15,0.16 -0.09,0 -0.08,0.02 -0.17,0.02l-7.68 0c-0.1,0 -0.09,-0.02 -0.17,-0.02 0.02,-0.08 0.23,-0.23 0.31,-0.29l2.29 -1.95zm3.1 -0.21c0.05,-0.08 0.08,-0.08 0.15,-0.14l2.51 -2.15 0 3.43c0,0.33 0.05,0.86 -0.06,1.09 -0.07,-0.04 -0.25,-0.2 -0.33,-0.27l-1.45 -1.25c-0.07,-0.05 -0.1,-0.09 -0.17,-0.14l-0.65 -0.57zm-5.97 2.23c-0.11,-0.23 -0.06,-0.76 -0.06,-1.09l0 -3.43c0.04,0.03 0.12,0.09 0.16,0.13l0.25 0.21c0.03,0.03 0.04,0.04 0.08,0.07l0.25 0.22c0.04,0.03 0.05,0.03 0.09,0.07 0.06,0.06 0.1,0.09 0.16,0.15 0.04,0.04 0.05,0.04 0.09,0.07l1 0.86c0.04,0.04 0.05,0.04 0.09,0.07 0.1,0.08 0.45,0.38 0.49,0.44 -0.05,0.08 -0.23,0.21 -0.32,0.29l-2.28 1.94zm-0.37 -4.63l0 4.48c0,0.36 0.36,0.72 0.72,0.72l7.87 0c0.36,0 0.72,-0.36 0.72,-0.72l0 -4.48c0,-0.42 -0.55,-0.79 -0.62,-0.79 -0.11,0 -0.16,0.08 -0.16,0.19 0,0.1 0.27,0.23 0.37,0.39l-2.37 2.01c-0.09,0.07 -0.16,0.15 -0.26,0.22 -0.09,0.07 -0.17,0.16 -0.26,0.22l-0.78 0.67c-0.09,0.08 -0.17,0.14 -0.26,0.22 -0.2,0.18 -0.32,0.27 -0.54,0.07l-4.02 -3.43c0.14,-0.2 0.37,-0.24 0.37,-0.43 0,-0.09 -0.08,-0.16 -0.16,-0.16 -0.08,0 -0.16,0.1 -0.21,0.14 -0.04,0.03 -0.05,0.05 -0.09,0.08 -0.16,0.14 -0.31,0.31 -0.31,0.58z"/>
    <path class="fil1" d="M5.52 7.18l0 -0.76 0.31 0 0 0.76c0,0.09 -0.08,0.17 -0.16,0.17 -0.08,0 -0.16,-0.09 -0.16,-0.17zm0.62 -2.31c0.56,0 0.85,-0.2 1.24,-0.41l0 2.05c-0.39,-0.2 -0.68,-0.41 -1.24,-0.41l0 -1.24zm-0.54 0l0.23 0 0 1.24c-0.28,0 -0.52,0.02 -0.72,-0.17 -0.06,-0.06 -0.1,-0.11 -0.14,-0.19 -0.18,-0.36 0.04,-0.89 0.63,-0.89zm2.23 0.78l-0.14 0 0 -0.31 0.14 0c0.09,0 0.17,0.08 0.17,0.16 0,0.08 -0.09,0.16 -0.17,0.16zm-3.24 -0.23l0 0.16c0,0.36 0.33,0.73 0.62,0.79 0,0.28 -0.01,0.57 -0,0.85 0.01,0.61 0.93,0.56 0.93,0.02l0 -0.79c0.39,0 0.84,0.17 1.11,0.38 0.08,0.06 0.17,0.22 0.29,0.22 0.09,0 0.16,-0.06 0.16,-0.16l0 -0.93 0.19 0c0.24,0 0.43,-0.2 0.43,-0.5 0,-0.21 -0.21,-0.43 -0.43,-0.43l-0.19 0 0 -0.93c0,-0.09 -0.06,-0.16 -0.16,-0.16 -0.18,0 -0.45,0.63 -1.59,0.62 -0.53,-0 -0.9,-0.05 -1.22,0.43 -0.06,0.09 -0.14,0.28 -0.14,0.42z"/>
    <path class="fil1" d="M3.35 3.73l0 2.35c0,0.09 0.06,0.16 0.16,0.16 0.16,0 0.16,-0.13 0.16,-0.29 -0,-0.34 -0.02,-2.09 0.01,-2.22 0.05,-0.24 0.21,-0.4 0.49,-0.4l5.51 0c0.65,0 0.5,0.76 0.5,1.28l-0 1.34c-0,0.16 -0.01,0.29 0.16,0.29 0.09,0 0.16,-0.06 0.16,-0.16l0 -2.35c0,-0.36 -0.36,-0.72 -0.72,-0.72l-5.7 0c-0.36,0 -0.72,0.36 -0.72,0.72z"/>
    <path class="fil1" d="M6.24 2.55c0,0.13 0.09,0.16 0.19,0.16 0.11,0 0.28,-0.3 0.48,-0.3 0.23,0 0.33,0.3 0.52,0.3 0.12,0 0.26,-0.15 0.05,-0.32 -0.1,-0.08 -0.18,-0.18 -0.32,-0.24 -0.15,-0.07 -0.34,-0.08 -0.49,-0.01 -0.15,0.07 -0.21,0.16 -0.32,0.24 -0.06,0.05 -0.12,0.07 -0.12,0.17z"/>
    <path class="fil1" d="M8.62 6.12c0,0.12 0.1,0.16 0.19,0.2 0.12,0.06 0.43,0.23 0.43,-0.05 0,-0.18 -0.43,-0.31 -0.47,-0.31 -0.09,0 -0.16,0.06 -0.16,0.16z"/>
    <path class="fil1" d="M8.62 4.88c0,0.26 0.31,0.11 0.42,0.05 0.37,-0.18 0.14,-0.36 0.06,-0.36 -0.08,0 -0.48,0.14 -0.48,0.31z"/>
    <path class="fil1" d="M8.62 5.5c0,0.2 0.23,0.16 0.47,0.16 0.21,0 0.21,-0.31 0,-0.31 -0.23,0 -0.47,-0.05 -0.47,0.16z"/>
   </g>
  </g>
 </g>
</svg>
