<?xml version="1.0" encoding="UTF-8"?>
<!DOCTYPE svg PUBLIC "-//W3C//DTD SVG 1.1//EN" "http://www.w3.org/Graphics/SVG/1.1/DTD/svg11.dtd">
<!-- Creator: CorelDRAW -->
<svg xmlns="http://www.w3.org/2000/svg" xml:space="preserve" width="16.9333mm" height="16.9333mm" version="1.1" style="shape-rendering:geometricPrecision; text-rendering:geometricPrecision; image-rendering:optimizeQuality; fill-rule:evenodd; clip-rule:evenodd"
viewBox="0 0 14.9 14.9"
 xmlns:xlink="http://www.w3.org/1999/xlink"
 xmlns:xodm="http://www.corel.com/coreldraw/odm/2003">
 <defs>
  <style type="text/css">
   <![CDATA[
    .fil0 {fill:none}
    .fil1 {fill:black}
   ]]>
  </style>
 </defs>
 <g id="Layer_x0020_1">
  <metadata id="CorelCorpID_0Corel-Layer"/>
  <g id="_105553190099584">
   <circle class="fil0" cx="7.45" cy="7.45" r="7.45"/>
   <g>
    <path class="fil1" d="M7.77 12.27l-1.18 0c-0.23,0 -0.23,-0.33 0,-0.33l1.18 0c0.18,0 0.18,0.33 0,0.33zm-1.23 -9.59c0,-0.07 0.07,-0.17 0.14,-0.17l0.94 0c0.19,0 0.19,0.33 0,0.33l-0.94 0c-0.07,0 -0.14,-0.1 -0.14,-0.17zm-2.62 -0.07l0 9.68c0,0.55 0.38,0.78 0.9,0.78l4.65 0c0.29,0 0.48,-0.03 0.64,-0.16 0.14,-0.11 0.28,-0.3 0.28,-0.55l0 -1.56c-0.28,0 -0.42,0.03 -0.61,-0.07l0 0.28 -5.22 0 0 -7.48 5.22 0 0 2.12c0.11,-0.01 0.18,-0.03 0.33,-0.02 0.12,0 0.28,0.04 0.28,-0.07l0 -3.02c0,-0.51 -0.44,-0.71 -0.9,-0.71l-4.67 0c-0.52,0 -0.9,0.22 -0.9,0.78z"/>
    <path class="fil1" d="M10.2 8.96c-0.39,0 -0.73,-0.35 -0.73,-0.66l0 -0.17c0,-0.32 0.34,-0.66 0.66,-0.66 0.27,0 0.42,0.01 0.63,0.24 0.42,0.46 0.11,1.25 -0.56,1.25zm-0.45 -2.46c-0.05,0.02 -0.07,0.02 -0.12,0.04 -0.13,0.05 -0.28,0.15 -0.34,0.14 -0.09,-0.01 -0.31,-0.25 -0.41,-0.25 -0.13,0 -0.47,0.34 -0.47,0.47 0,0.12 0.17,0.26 0.28,0.42l-0.11 0.2c-0.04,0.1 -0.06,0.15 -0.08,0.25 -0.58,0.14 -0.54,-0.05 -0.54,0.68 0,0.17 0.36,0.19 0.54,0.19 0.07,0.29 0.17,0.39 0.19,0.47 -0.3,0.44 -0.35,0.39 -0.1,0.64 0.06,0.06 0.14,0.16 0.2,0.2 0.18,0.14 0.34,-0.12 0.48,-0.2 0.09,-0.06 0.16,0.02 0.25,0.06 0.35,0.16 0.23,-0.04 0.33,0.45 0.01,0.07 0.01,0.09 0.06,0.13 0.09,0.08 0.31,0.06 0.46,0.06 0.27,0 0.28,-0.23 0.28,-0.57 0.15,-0 0.38,-0.12 0.47,-0.19l0.17 0.13c0.23,0.16 0.26,0.2 0.49,-0.03 0.05,-0.05 0.17,-0.16 0.2,-0.21 0.09,-0.17 -0.11,-0.3 -0.25,-0.51 0.23,-0.44 0.09,-0.45 0.27,-0.48 0.46,-0.1 0.46,0.04 0.46,-0.6 0,-0.24 -0.32,-0.24 -0.57,-0.26 -0.01,-0.08 -0.04,-0.18 -0.07,-0.24l-0.12 -0.21c0.3,-0.45 0.38,-0.39 0.06,-0.7 -0.24,-0.24 -0.22,-0.29 -0.58,0 -0.04,0.03 -0.07,0.06 -0.1,0.09 -0.1,-0.06 -0.33,-0.18 -0.47,-0.19 0,-0.17 -0.02,-0.54 -0.24,-0.54 -0.76,0 -0.51,-0.01 -0.64,0.54z"/>
    <path class="fil1" d="M6.4 6.67c0,0.24 0.26,0.25 0.34,0.08l1 -2.52c0.08,-0.19 0.04,-0.31 -0.19,-0.31 -0.13,0 -0.29,0.51 -0.33,0.63 -0.09,0.23 -0.18,0.46 -0.27,0.69 -0.07,0.17 -0.55,1.34 -0.55,1.41z"/>
    <path class="fil1" d="M8.83 5.4c-0.24,0.35 -0.76,0.59 -0.63,0.82 0.14,0.25 0.37,-0.03 0.43,-0.08 0.1,-0.1 0.66,-0.61 0.66,-0.74 0,-0.09 -0.14,-0.2 -0.19,-0.25 -0.04,-0.04 -0.07,-0.07 -0.11,-0.11 -0.08,-0.09 -0.47,-0.56 -0.6,-0.56 -0.12,0 -0.23,0.1 -0.2,0.22 0.04,0.14 0.51,0.49 0.65,0.7z"/>
    <path class="fil1" d="M5.06 5.35c0,0.19 0.01,0.14 0.19,0.32 0.09,0.09 0.6,0.64 0.68,0.64 0.12,0 0.21,-0.06 0.21,-0.19 0,-0.1 -0.61,-0.67 -0.66,-0.71 0.14,-0.2 0.66,-0.66 0.66,-0.73 0,-0.11 -0.06,-0.21 -0.17,-0.21 -0.13,0 -0.36,0.27 -0.49,0.41 -0.08,0.08 -0.14,0.14 -0.22,0.22 -0.05,0.05 -0.21,0.17 -0.21,0.24z"/>
   </g>
  </g>
 </g>
</svg>
