<?xml version="1.0" encoding="UTF-8"?>
<!DOCTYPE svg PUBLIC "-//W3C//DTD SVG 1.1//EN" "http://www.w3.org/Graphics/SVG/1.1/DTD/svg11.dtd">
<!-- Creator: CorelDRAW -->
<svg xmlns="http://www.w3.org/2000/svg" xml:space="preserve" width="16.9333mm" height="16.9333mm" version="1.1" style="shape-rendering:geometricPrecision; text-rendering:geometricPrecision; image-rendering:optimizeQuality; fill-rule:evenodd; clip-rule:evenodd"
viewBox="0 0 15.51 15.51"
 xmlns:xlink="http://www.w3.org/1999/xlink"
 xmlns:xodm="http://www.corel.com/coreldraw/odm/2003">
 <defs>
  <style type="text/css">
   <![CDATA[
    .fil0 {fill:none}
    .fil1 {fill:black}
   ]]>
  </style>
 </defs>
 <g id="Layer_x0020_1">
  <metadata id="CorelCorpID_0Corel-Layer"/>
  <g id="_105553188855424">
   <circle class="fil0" cx="7.75" cy="7.75" r="7.75"/>
   <g>
    <path class="fil1" d="M5.24 5.49c0,0.56 0.05,0.85 0.3,1.33 0.09,0.17 0.46,0.69 0.62,0.73l0 -1.4c-0,-0.4 -0.05,-0.32 0.97,-0.32l0 -0.62c0,-0.1 0.05,-0.15 0.15,-0.15l0.82 0 0 -0.65c0,-0.05 0.06,-0.11 0.11,-0.11l0.99 0c0.22,0 0.15,0.32 0.15,0.69l0 2.56c0.08,-0.02 0.3,-0.26 0.36,-0.33 0.1,-0.13 0.2,-0.26 0.27,-0.41 0.25,-0.49 0.29,-0.74 0.29,-1.32 0,-0.4 -0.12,-0.69 -0.25,-0.98 -0.07,-0.15 -0.14,-0.26 -0.22,-0.38 -0.04,-0.06 -0.08,-0.11 -0.13,-0.17l-0.24 -0.24c-0.32,-0.29 -0.69,-0.49 -1.12,-0.58 -0.56,-0.12 -1.02,-0.07 -1.56,0.15 -0.39,0.16 -0.49,0.31 -0.73,0.49 -0.15,0.11 -0.43,0.52 -0.52,0.7 -0.12,0.25 -0.25,0.63 -0.25,0.99z"/>
    <path class="fil1" d="M4.94 5.62c0,-0.65 0.24,-1.3 0.64,-1.79l0.54 -0.51c0.86,-0.58 1.83,-0.68 2.8,-0.27 0.2,0.08 0.47,0.26 0.63,0.4 0.22,0.18 0.33,0.32 0.5,0.55 0.77,1.04 0.66,2.62 -0.32,3.6 -0.28,0.28 -0.47,0.4 -0.82,0.58 -0.22,0.11 -0.56,0.2 -0.82,0.23 -1.02,0.13 -2.05,-0.35 -2.64,-1.18 -0.11,-0.15 -0.17,-0.28 -0.26,-0.45 -0.15,-0.31 -0.26,-0.79 -0.26,-1.16zm-0.39 -0.13c0,0.64 0.07,1.02 0.33,1.54 0.22,0.43 0.37,0.61 0.7,0.94 0.3,0.3 0.87,0.62 1.31,0.73 0.12,0.03 0.22,0.05 0.33,0.07 0.14,0.03 0.15,0.09 0.15,0.26 -0,0.07 -0,0.13 -0,0.2 -0,0.2 -0.04,0.15 0.71,0.15 0.1,0 0.07,-0.17 0.06,-0.34 -0,-0.35 0.04,-0.17 0.79,-0.44 0.33,-0.12 0.78,-0.41 1,-0.63 0.71,-0.72 1.03,-1.39 1.03,-2.48 0,-0.6 -0.25,-1.26 -0.58,-1.72 -0.05,-0.07 -0.11,-0.16 -0.17,-0.22 -0.03,-0.04 -0.06,-0.06 -0.1,-0.1 -0.11,-0.12 0.01,-0.03 -0.18,-0.18 -0.18,-0.15 -0.27,-0.27 -0.55,-0.42 -0.99,-0.54 -1.94,-0.59 -2.99,-0.14 -0.1,0.04 -0.16,0.09 -0.25,0.14l-0.46 0.32c-0.33,0.29 -0.65,0.68 -0.83,1.08 -0.15,0.33 -0.3,0.77 -0.3,1.25z"/>
    <path class="fil1" d="M4.58 12.76l-0.02 0.13c-0.34,0.08 -0.21,-0.17 -0.19,-0.19 0.08,-0.08 0.21,-0.03 0.21,0.06zm-1.76 -0.34l0 0.67 0.45 0c0,-0.38 -0.05,-0.47 0.17,-0.47 0.15,0 0.11,0.31 0.11,0.47l1.81 0c0,-0.21 -0.04,-0.47 0.15,-0.47 0.2,0 0.15,0.2 0.15,0.47l0.43 0 0 -0.75c0,-0.34 -0.48,-0.55 -0.77,-0.62 -0.15,0.3 -0.15,0.82 -0.37,0.82 -0.08,0 -0.31,-0.25 -0.47,-0.37 -0.04,0.04 -0.08,0.07 -0.12,0.11 -0.06,0.06 -0.08,0.07 -0.14,0.12 -0.28,0.25 -0.31,0.14 -0.44,-0.3 -0.02,-0.06 -0.09,-0.38 -0.14,-0.38 -0.15,0 -0.82,0.21 -0.82,0.71z"/>
    <path class="fil1" d="M7.18 12.56c0,0.44 0.64,0.71 1,0.35 0.09,-0.09 0.17,-0.22 0.17,-0.39l0 -1.96 -1.16 0 0 2z"/>
    <path class="fil1" d="M9.76 9.83l0 0.26c0.47,0 0.81,0.01 1.09,-0.37 0.35,-0.47 0.25,-0.07 0.63,0.2 0.26,0.19 0.57,0.17 0.9,0.17 0,-0.47 -0.12,-0.8 -0.35,-1.05 -0.87,-0.94 -2.27,-0.2 -2.27,0.79z"/>
    <path class="fil1" d="M11.74 6.14l0 0.09 -0.54 0c-0.02,0.2 -0.13,0.55 -0.2,0.72l-0.31 0.61 1.05 0c0,0.25 0.09,0.4 0.33,0.22 0.06,-0.05 0.09,-0.08 0.16,-0.12l0.6 -0.47c0.06,-0.05 0.1,-0.07 0.16,-0.12 0.12,-0.1 0.18,-0.2 0.01,-0.33 -0.15,-0.12 -1,-0.81 -1.08,-0.81 -0.13,0 -0.17,0.09 -0.17,0.22z"/>
    <path class="fil1" d="M2.43 4.54c0,0.17 0.12,0.21 0.32,0.37 0.06,0.05 0.11,0.09 0.18,0.14l0.53 0.41c0.22,0.18 0.32,0.04 0.32,-0.21l0.49 0c0.12,-0.51 0.03,-0.43 0.28,-1.04 0.04,-0.1 0.12,-0.22 0.13,-0.32l-0.9 0c0,-0.3 -0.13,-0.36 -0.34,-0.19l-0.45 0.35c-0.07,0.05 -0.57,0.41 -0.57,0.49z"/>
    <path class="fil1" d="M8.38 8.05c0.11,-0 0.28,-0.08 0.38,-0.12 0.08,-0.03 0.31,-0.12 0.31,-0.21l0 -3.14 -0.69 0 0 3.46z"/>
    <path class="fil1" d="M5.29 10.05c0,-0.31 0.02,-0.27 -0.11,-0.28 -0.08,-0.01 -0.1,-0.02 -0.17,-0.02l-0.71 -0.04c-0.17,0.01 -0.49,0.04 -0.61,0.14 -0.08,0.07 -0.07,0.19 -0.06,0.3 0.04,0.28 0.07,0.39 0.18,0.6 0.41,0.79 1.48,0.43 1.48,-0.69z"/>
    <path class="fil1" d="M7.41 8.11c0.39,0.03 0.3,0.03 0.69,0l0 -2.47c0,-0.37 0.12,-0.3 -0.62,-0.3 -0.1,0 -0.06,0.17 -0.06,0.28l0 2.49z"/>
    <path class="fil1" d="M3.37 9.81c0.13,-0.55 1.34,-0.36 1.72,-0.34 0.24,0.01 0.47,0.07 0.47,0.3 0.06,-0.04 0.09,-0.19 0.09,-0.28 0,-0.06 -0.15,-0.05 -0.15,-0.3 0,-0.21 0.48,-0.58 -0.75,-0.58 -0.56,0 -1.35,0.08 -1.47,0.66 -0.02,0.1 0.02,0.3 0.04,0.43 0.02,0.11 -0.01,0.07 0.05,0.12z"/>
    <path class="fil1" d="M10.23 10.37c0.04,0.42 0.32,1.01 0.75,1.01 0.32,0 0.49,-0.05 0.68,-0.33 0.1,-0.15 0.22,-0.42 0.22,-0.66 0,-0.06 -0.25,-0.04 -0.47,-0.17 -0.25,-0.14 -0.24,-0.22 -0.37,-0.3 -0.04,0.08 -0.06,0.1 -0.14,0.16 -0.08,0.06 -0.1,0.08 -0.19,0.13 -0.17,0.1 -0.28,0.11 -0.49,0.15z"/>
    <path class="fil1" d="M9.44 12.63l0 0.45 0.43 0c0,-0.15 -0.01,-0.26 0.15,-0.26 0.14,0 0.15,0.12 0.15,0.26l1.81 0c0,-0.2 -0,-0.26 0.17,-0.26 0.13,0 0.11,0.18 0.11,0.26l0.45 0c0,-0.3 0.04,-0.52 -0.14,-0.72 -0.08,-0.09 -0.2,-0.18 -0.33,-0.21 -0,0.18 -0.19,0.43 -0.3,0.52 -0.37,0.3 -0.65,0.23 -1.16,0.23 -0.41,0 -0.85,-0.4 -0.88,-0.75 -0.17,0.04 -0.45,0.28 -0.45,0.47z"/>
    <path class="fil1" d="M6.45 7.73c0,0.08 0.22,0.17 0.29,0.2 0.09,0.04 0.28,0.12 0.39,0.12l0 -1.94 -0.69 0 0 1.61z"/>
    <path class="fil1" d="M10.17 12.05c0,0.17 0.11,0.32 0.23,0.42 0.25,0.2 0.5,0.16 0.85,0.16 0.41,0 0.65,-0.24 0.73,-0.58 -0.63,-0.15 -0.58,-0.04 -0.58,-0.41 -0.23,0.01 -0.2,0.09 -0.6,0 0,0.38 0.02,0.26 -0.62,0.41z"/>
    <path class="fil1" d="M10.51 11.68c0,-0.31 -0.08,-0.19 -0.25,-0.42 -0.06,-0.08 -0.17,-0.25 -0.18,-0.36 -0.11,0 -0.25,0.01 -0.32,-0.02 0,0.27 -0.04,0.71 0.23,0.87 0.11,0.07 0.24,-0.07 0.53,-0.08z"/>
    <path class="fil1" d="M12.06 10.91c-0.02,0.1 -0.11,0.25 -0.17,0.33 -0.04,0.05 -0.06,0.09 -0.11,0.13 -0.12,0.13 -0.11,0.06 -0.11,0.27 0,0.09 0.09,0.05 0.28,0.1 0.14,0.04 0.15,0.07 0.25,-0.04 0.18,-0.22 0.18,-0.44 0.18,-0.75 0,-0.09 -0.05,-0.04 -0.32,-0.04z"/>
    <polygon class="fil1" points="7.03,10.26 8.49,10.26 8.49,10.07 7.03,10.07 "/>
    <polygon class="fil1" points="7.18,9.79 8.34,9.79 8.34,9.66 7.18,9.66 "/>
    <path class="fil1" d="M4.47 11.45c-0.16,0 -0.18,-0.02 -0.28,-0.02l0.3 0.32c0.12,-0.17 0.25,-0.25 0.28,-0.34 -0.11,0.01 -0.16,0.04 -0.3,0.04z"/>
    <path class="fil1" d="M11.26 5.08c0,0.3 0.47,0.14 0.28,-0.08 -0.09,-0.11 -0.28,-0.05 -0.28,0.08z"/>
    <path class="fil1" d="M12.25 5.25c0.2,0 0.19,-0.32 0,-0.32 -0.2,0 -0.22,0.32 0,0.32z"/>
    <path class="fil1" d="M3.93 6.37c0,0.2 0.32,0.2 0.32,0 0,-0.2 -0.32,-0.2 -0.32,0z"/>
    <path class="fil1" d="M11.84 5.25c0.07,0 0.15,-0.08 0.15,-0.15 0,-0.15 -0.17,-0.22 -0.27,-0.12 -0.11,0.11 -0.01,0.27 0.12,0.27z"/>
    <path class="fil1" d="M3.52 6.37c0,0.2 0.32,0.2 0.32,0 -0.01,-0.22 -0.32,-0.19 -0.32,-0z"/>
    <path class="fil1" d="M12.51 5.06c0,0.28 0.3,0.22 0.3,0.04 0,-0.25 -0.3,-0.19 -0.3,-0.04z"/>
    <path class="fil1" d="M3.11 6.35c0,0.26 0.3,0.19 0.3,0.06 0,-0.1 0.02,-0.19 -0.17,-0.19 -0.05,0 -0.13,0.08 -0.13,0.13z"/>
    <path class="fil1" d="M2.71 6.37c0,0.21 0.3,0.21 0.3,0 0,-0.21 -0.3,-0.21 -0.3,0z"/>
    <path class="fil1" d="M4.68 11.96c0.09,0.02 0.12,0.1 0.19,0.15 0.03,-0.13 0.13,-0.35 0.13,-0.47 -0.08,0.02 -0.27,0.24 -0.32,0.32z"/>
    <path class="fil1" d="M4.08 12.11l0.18 -0.17c-0.06,-0.08 -0.22,-0.3 -0.33,-0.31 0.05,0.11 0.11,0.38 0.15,0.47z"/>
    <path class="fil1" d="M9.76 10.44l0 0.13c0.1,0.07 0.07,0.06 0.22,0.06 0,-0.11 -0.02,-0.13 -0.02,-0.26 -0.17,0 -0.1,-0 -0.19,0.06z"/>
    <path class="fil1" d="M3.14 10.24c0,0.14 0.09,0.15 0.24,0.15 -0.02,-0.06 -0.04,-0.19 -0.04,-0.26 -0.13,0 -0.19,0.08 -0.19,0.11z"/>
    <path class="fil1" d="M5.54 10.39c0.14,0 0.12,0 0.22,-0.06l0 -0.13c-0.16,-0.11 -0.18,-0.08 -0.2,0.04 -0.01,0.05 -0.02,0.08 -0.02,0.16z"/>
    <path class="fil1" d="M12.21 10.63c0.18,0 0.28,-0.26 -0.02,-0.26 -0.01,0.16 -0.08,0.26 0.02,0.26z"/>
   </g>
  </g>
 </g>
</svg>
