<?xml version="1.0" encoding="UTF-8"?>
<!DOCTYPE svg PUBLIC "-//W3C//DTD SVG 1.1//EN" "http://www.w3.org/Graphics/SVG/1.1/DTD/svg11.dtd">
<!-- Creator: CorelDRAW -->
<svg xmlns="http://www.w3.org/2000/svg" xml:space="preserve" width="16.9333mm" height="16.9333mm" version="1.1" style="shape-rendering:geometricPrecision; text-rendering:geometricPrecision; image-rendering:optimizeQuality; fill-rule:evenodd; clip-rule:evenodd"
viewBox="0 0 14.09 14.09"
 xmlns:xlink="http://www.w3.org/1999/xlink"
 xmlns:xodm="http://www.corel.com/coreldraw/odm/2003">
 <defs>
  <style type="text/css">
   <![CDATA[
    .fil0 {fill:none}
    .fil1 {fill:black}
   ]]>
  </style>
 </defs>
 <g id="Layer_x0020_1">
  <metadata id="CorelCorpID_0Corel-Layer"/>
  <circle class="fil0" cx="7.04" cy="7.04" r="7.04"/>
  <g id="_105553192172576">
   <path class="fil1" d="M7.99 12.07l0 -1.61c0,-0.27 0.32,-0.21 0.54,-0.21 0.12,0 0.21,0.1 0.21,0.21l0 1.61c0,0.59 -0.76,0.59 -0.76,0zm-4.84 -0.68l4.46 0 0 0.38 -4.91 0c0.06,-0.25 0.14,-0.38 0.45,-0.38zm3.71 -0.76l0.76 0 0 0.38 -0.76 0 0 -0.38zm-3.02 0l2.64 0 0 0.38 -2.64 0 0 -0.38zm-2.27 -0.99l0 -0.52 3.75 0c0.07,0 0.29,0.25 0.33,0.31 0.38,-0.18 0.41,-0.24 0.57,-0.14 0.06,0.04 0.12,0.07 0.18,0.1 0.15,0.08 0.65,0.31 0.83,0.32 0,0.21 0.1,0.35 0.26,0.45 0.03,0.02 0.05,0.03 0.07,0.04 0,0 0.01,0.01 0.02,0.01l-4.95 0.04c-0.38,0 -1.06,0.08 -1.06,-0.61zm6.04 0.02l0 -0.61c0.12,0 0.2,0.03 0.31,0.05 0.75,0.08 0.93,-0.05 1.2,-0.05 0,1 0.19,0.83 -1.3,0.83 -0.12,0 -0.21,-0.1 -0.21,-0.21zm-2.27 -3.94c0,-0.43 0.14,-1 0.34,-1.36 0.55,-1 1.53,-1.66 2.69,-1.66 0.43,0 1,0.14 1.37,0.33 0.99,0.51 1.65,1.56 1.65,2.69 0,0.41 -0.13,0.96 -0.28,1.24 -0.39,0.78 -0.73,1.12 -1.51,1.51 -0.71,0.36 -1.76,0.36 -2.47,0 -0.25,-0.12 -0.25,-0.11 -0.48,-0.27 -0.28,-0.19 -0.56,-0.47 -0.76,-0.76 -0.33,-0.49 -0.55,-1.09 -0.55,-1.72zm-1.51 -0.66l0 1.32c0,0.07 0.04,0.07 0.1,0.09 0.62,0.21 0.19,-0.04 0.6,0.86 0.36,0.81 0.44,0.45 0.13,1.1l0.31 0.3 -3.4 0.01 0 -3.54c0,-0.37 0.25,-0.61 0.61,-0.61l2.17 0c-0.01,0.32 -0.1,0.29 -0.36,0.37 -0.08,0.02 -0.16,0.02 -0.16,0.1zm1.13 0.52c0,0.75 0.09,1.19 0.44,1.83 0.35,0.63 0.92,1.12 1.57,1.42 0.09,0.04 0.17,0.06 0.25,0.1l0 0.38c-0.28,-0.07 -0.71,-0.29 -0.96,-0.45 -0.06,-0.04 -0.07,-0.06 -0.12,-0.09l-0.4 0.19 -0.62 -0.61 0.2 -0.4 -0.28 -0.44c-0.08,-0.16 -0.17,-0.33 -0.22,-0.51 -0.21,-0.64 -0.09,-0.69 -0.32,-0.76 -0.09,-0.03 -0.19,-0.07 -0.29,-0.09l0 -0.85c0.09,-0.02 0.17,-0.05 0.27,-0.09 0.13,-0.04 0.15,-0.03 0.18,-0.17 0.14,-0.69 0.3,-1 0.66,-1.54l-0.19 -0.4 0.61 -0.62 0.4 0.2 0.35 -0.23c0.13,-0.08 0.24,-0.14 0.39,-0.2 0.49,-0.19 0.43,-0.15 0.91,-0.27 0.03,-0.15 0.11,-0.27 0.14,-0.42l0.85 0c0.04,0.16 0.11,0.28 0.14,0.42 0.47,0.11 0.89,0.21 1.29,0.45l0.36 0.23 0.4 -0.19 0.62 0.61 -0.2 0.4c0.05,0.06 0.09,0.11 0.13,0.17 0.12,0.2 0.21,0.34 0.3,0.57 0.06,0.15 0.11,0.27 0.16,0.43 0.05,0.16 0.07,0.32 0.11,0.48 0.14,0.03 0.28,0.11 0.42,0.14l0 0.85c-0.15,0.03 -0.27,0.11 -0.42,0.14 -0.19,0.82 -0.26,1.02 -0.68,1.65l0.19 0.4 -0.61 0.62 -0.4 -0.2c-0.29,0.23 -0.74,0.47 -1.09,0.55l0 -0.38c0.07,-0.03 0.16,-0.06 0.24,-0.09 0.63,-0.28 1.05,-0.66 1.45,-1.21 0.32,-0.44 0.58,-1.19 0.58,-1.76 0,-0.7 -0.05,-0.98 -0.32,-1.59 -0.17,-0.38 -0.39,-0.66 -0.68,-0.95 -0.58,-0.58 -1.41,-1 -2.26,-1 -0.7,0 -0.98,0.05 -1.59,0.32 -0.17,0.08 -0.37,0.19 -0.51,0.29 -0.17,0.12 -0.29,0.23 -0.44,0.38 -0.58,0.58 -1,1.41 -1,2.26zm0.68 -3.56l-0.99 1c0.26,0.63 0.27,0.27 -0.04,0.88 -0.06,0.11 -0.08,0.21 -0.13,0.31 -0.69,0 -1.38,0 -2.08,0 -0.42,0 -0.61,-0.01 -0.85,0.18 -0.18,0.14 -0.37,0.38 -0.37,0.69l0 4.67c0,0.44 0.44,0.87 0.87,0.87l1.39 0 0 0.38 -0.42 0c-0.39,0 -0.71,0.33 -0.71,0.8 0,0.15 0.18,0.33 0.33,0.33l4.96 0c0,0.45 0.37,0.76 0.68,0.76 0.25,0 0.42,-0.03 0.61,-0.22 0.09,-0.09 0.22,-0.29 0.22,-0.47l0 -1.82c0,-0.08 -0.02,-0.09 -0.02,-0.17 0.21,-0.05 0.4,-0.27 0.4,-0.52 0.18,-0.01 0.67,-0.23 0.82,-0.31 0.15,-0.08 0.27,-0.19 0.36,-0.16 0.05,0.02 0.14,0.07 0.19,0.09 0.05,0.02 0.05,0.03 0.1,0.05 0.05,0.02 0.07,0.03 0.11,0.05l1 -1.01c-0.05,-0.09 -0.09,-0.18 -0.14,-0.27 -0.08,-0.15 -0.1,-0.13 -0.02,-0.26 0.22,-0.35 0.38,-0.76 0.48,-1.17 0.04,-0.17 0.07,-0.14 0.22,-0.18 0.06,-0.02 0.1,-0.03 0.16,-0.05 0.06,-0.02 0.12,-0.02 0.12,-0.09l0 -1.32c0,-0.09 -0.1,-0.09 -0.26,-0.14 -0.38,-0.12 -0.11,-0.08 -0.43,-0.8 -0.09,-0.21 -0.17,-0.36 -0.28,-0.55 -0.09,-0.16 -0.07,-0.14 0.14,-0.54l-1 -1.01c-0.66,0.29 -0.24,0.25 -1.1,-0.13 -0.86,-0.38 -0.67,0 -0.86,-0.58 -0.02,-0.06 -0.02,-0.12 -0.09,-0.12l-1.32 0c-0.09,0 -0.09,0.1 -0.14,0.26 -0.12,0.38 -0.06,0.1 -0.81,0.44 -0.82,0.36 -0.45,0.44 -1.1,0.13z"/>
   <path class="fil1" d="M6.1 5.72c0,-0.69 0.32,-1.31 0.82,-1.73 0.07,-0.06 0.08,-0.07 0.16,-0.13 0.69,-0.45 1.44,-0.54 2.22,-0.2 1.39,0.6 1.82,2.52 0.67,3.66 -0.16,0.16 -0.44,0.36 -0.67,0.46 -0.63,0.27 -1.23,0.27 -1.86,0 -0.79,-0.34 -1.34,-1.19 -1.34,-2.06zm-0.38 -0.12c0,0.82 0.21,1.43 0.77,1.99 1.04,1.04 2.7,1.04 3.74,0 0.22,-0.22 0.37,-0.43 0.52,-0.73 0.62,-1.22 0.13,-2.84 -1.25,-3.53 -1.22,-0.62 -2.84,-0.13 -3.53,1.25 -0.12,0.25 -0.25,0.66 -0.25,1.02z"/>
   <path class="fil1" d="M2.32 5.34l0.76 0 0 1.13 -0.76 0 0 -1.13zm-0.38 1.51l1.51 0 0 -1.89 -1.51 0 0 1.89z"/>
   <path class="fil1" d="M9.5 6.08l0 -0.71c0,-0.27 0.38,-0.27 0.38,0l0 0.71c0,0.27 -0.38,0.27 -0.38,0zm-0.38 -0.78l0 0.85c0,0.29 0.25,0.52 0.61,0.52 0.26,0 0.52,-0.26 0.52,-0.52l0 -0.85c0,-0.29 -0.25,-0.52 -0.61,-0.52 -0.26,0 -0.52,0.26 -0.52,0.52z"/>
   <path class="fil1" d="M6.48 5.27c0,0.62 0.58,0.56 0.72,0.77 0.16,0.22 -0.32,0.39 -0.34,0.06l-0.38 0c0,0.75 1.13,0.78 1.13,-0.02 0,-0.44 -0.64,-0.55 -0.72,-0.67 -0.16,-0.22 0.32,-0.39 0.34,-0.06l0.38 0c0,-0.8 -1.13,-0.7 -1.13,-0.07z"/>
   <polygon class="fil1" points="7.99,6.67 8.74,6.67 8.74,6.29 8.37,6.29 8.37,5.91 8.74,5.91 8.74,5.53 8.37,5.53 8.37,5.16 8.74,5.16 8.74,4.78 7.99,4.78 "/>
   <polygon class="fil1" points="1.95,7.61 3.83,7.61 3.83,7.23 1.95,7.23 "/>
   <polygon class="fil1" points="1.95,8.37 3.83,8.37 3.83,7.99 1.95,7.99 "/>
   <polygon class="fil1" points="1.95,9.88 2.32,9.88 2.32,9.5 1.95,9.5 "/>
   <polygon class="fil1" points="2.7,9.88 3.08,9.88 3.08,9.5 2.7,9.5 "/>
   <polygon class="fil1" points="3.46,9.88 3.83,9.88 3.83,9.5 3.46,9.5 "/>
  </g>
 </g>
</svg>
