<?xml version="1.0" encoding="UTF-8"?>
<!DOCTYPE svg PUBLIC "-//W3C//DTD SVG 1.1//EN" "http://www.w3.org/Graphics/SVG/1.1/DTD/svg11.dtd">
<!-- Creator: CorelDRAW -->
<svg xmlns="http://www.w3.org/2000/svg" xml:space="preserve" width="16.9333mm" height="16.9333mm" version="1.1" style="shape-rendering:geometricPrecision; text-rendering:geometricPrecision; image-rendering:optimizeQuality; fill-rule:evenodd; clip-rule:evenodd"
viewBox="0 0 14.61 14.61"
 xmlns:xlink="http://www.w3.org/1999/xlink"
 xmlns:xodm="http://www.corel.com/coreldraw/odm/2003">
 <defs>
  <style type="text/css">
   <![CDATA[
    .fil0 {fill:none}
    .fil1 {fill:black}
   ]]>
  </style>
 </defs>
 <g id="Layer_x0020_1">
  <metadata id="CorelCorpID_0Corel-Layer"/>
  <circle class="fil0" cx="7.31" cy="7.31" r="7.31"/>
  <g id="_105553190881792">
   <path class="fil1" d="M4.19 12.04l0 -0.34 5.6 0c0,0.32 0.04,0.54 -0.21,0.77 -0.11,0.1 -0.27,0.16 -0.47,0.16l-4.23 0c-0.39,0 -0.68,-0.28 -0.68,-0.59zm6.17 -1.8l-0.23 0 0 -1.32c0.2,0 0.39,-0.03 0.6,0.15 0.47,0.42 0.13,1.17 -0.37,1.17zm-7.81 -1.64l0 -1.82c0,-0.42 0.47,-0.36 0.71,-0.36 0.36,0 0.71,0 1.07,0 0.02,0.27 0.33,0.55 0.61,0.55l0.55 0 0 1.62c0,0.22 -0.16,0.34 -0.39,0.34 -0.36,-0 -0.37,-0 -0.37,0.36 -0.13,-0.09 -0.24,-0.3 -0.36,-0.35 -0.09,-0.03 -1.22,-0.02 -1.42,-0.02 -0.15,0 -0.2,-0.02 -0.28,-0.09 -0.06,-0.05 -0.13,-0.14 -0.13,-0.23zm9.52 0.77l0 0.41c-0.38,0 -0.39,0.14 -0.48,0.34 -0.03,0.08 -0.1,0.22 -0.08,0.3 0.02,0.05 0.14,0.22 0.17,0.27l-0.27 0.28c-0.29,-0.17 -0.24,-0.27 -0.78,-0 -0.19,0.09 -0.07,0.38 -0.21,0.38l-0.3 0 0 -0.77 0.16 0c0.8,0 1.37,-0.99 0.71,-1.69 -0.26,-0.28 -0.52,-0.31 -0.87,-0.31l0 -0.77 0.3 0c0.14,0 0.02,0.28 0.21,0.38 0.07,0.04 0.37,0.17 0.45,0.17 0.09,0 0.24,-0.12 0.32,-0.16l0.28 0.27c-0.04,0.06 -0.14,0.2 -0.17,0.26 -0.04,0.11 0.18,0.55 0.2,0.57 0.05,0.04 0.26,0.08 0.35,0.09zm-5.24 -2.37c-0.05,-0.03 -0.28,-0.33 -0.35,-0.35 -0.08,-0.03 -1.2,-0 -1.42,-0.01 -0.2,-0.01 -0.41,-0.12 -0.41,-0.32l0 -1.89c0,-0.14 0.16,-0.3 0.3,-0.3l2.32 0c0.17,0 0.32,0.19 0.32,0.36l0 1.8c0,0.18 -0.17,0.33 -0.39,0.34 -0.38,0.03 -0.36,-0.06 -0.36,0.36zm3.05 -1.57c0,-0.63 -0.33,-0.21 -0.62,-0.43 -0.06,-0.04 -0.13,-0.14 -0.13,-0.23l0 -1.89c0,-0.14 0.16,-0.3 0.3,-0.3l2.34 0c0.13,0 0.3,0.15 0.3,0.34l0 1.82c0,0.18 -0.15,0.32 -0.39,0.32 -0.21,-0 -1.3,-0.02 -1.41,0.02 -0.14,0.05 -0.26,0.26 -0.39,0.34zm-3.98 -3.23l0 -0.23 2.16 0c0,0.25 0.03,0.36 -0.07,0.36l-2 0c-0.07,0 -0.09,-0.07 -0.09,-0.14zm2.89 0.73l0 1.75c0,0.44 0.32,0.73 0.75,0.73 0,0.47 -0.06,0.61 0.25,0.61l0 5.33 -5.6 0 0 -2.09c0.2,0.02 0.52,0.61 0.71,0.61 0.24,0 0.18,-0.34 0.18,-0.61 0.42,0 0.75,-0.3 0.75,-0.71l0 -1.59c0.62,0 0.43,-0.06 0.8,0.31 0.09,0.09 0.21,0.3 0.36,0.3 0.22,0 0.16,-0.25 0.16,-0.61 0.25,0 0.39,-0.02 0.59,-0.23 0.11,-0.12 0.19,-0.29 0.19,-0.52l0 -1.64c0,-0.43 -0.28,-0.77 -0.71,-0.77l-2.19 0c-0.24,0 -0.39,0.08 -0.51,0.2 -0.12,0.12 -0.22,0.26 -0.22,0.48l0 1.62 -0.11 0 0 -3.53c0,-0.31 0.29,-0.59 0.68,-0.59l0.71 0c0,0.28 -0.05,0.71 0.46,0.71l1.91 0c0.51,0 0.46,-0.43 0.46,-0.71 0.51,0 1.03,-0.09 1.27,0.27 -0.3,0 -0.46,0.01 -0.62,0.15 -0.14,0.12 -0.27,0.28 -0.27,0.53zm-4.94 -0.25l0 3.41c-0.37,0 -1.02,-0.05 -1.27,0.07l-0.16 0.13c-0.13,0.13 -0.21,0.3 -0.21,0.54l0 1.66c0,0.45 0.3,0.75 0.75,0.75l0.89 0 0 2.66c0,0.58 0.42,1.02 0.89,1.02l4.51 0c0.14,0 0.27,-0.05 0.37,-0.11 0.47,-0.26 0.52,-0.64 0.52,-1.15 0.69,0 0.59,0.05 0.69,-0.36 0.03,-0.11 -0,-0.08 0.08,-0.12 0.11,-0.07 0.16,-0.08 0.26,-0.01 0.33,0.23 0.29,0.2 0.62,-0.13 0.36,-0.36 0.33,-0.3 0.14,-0.6 -0.07,-0.11 -0.06,-0.17 -0,-0.28 0.05,-0.09 -0,-0.05 0.11,-0.07 0.07,-0.02 0.12,-0.02 0.17,-0.03 0.28,-0.06 0.2,-0.28 0.2,-0.8 0,-0.11 -0.05,-0.17 -0.15,-0.2 -0.07,-0.02 -0.22,-0.05 -0.31,-0.05 -0.03,-0.15 -0.14,-0.18 -0.05,-0.32 0.23,-0.35 0.24,-0.28 -0.12,-0.63 -0.36,-0.36 -0.29,-0.36 -0.72,-0.07 -0.12,-0.06 -0.19,-0.04 -0.23,-0.14 -0,-0.01 -0.02,-0.09 -0.03,-0.11 -0.08,-0.36 -0.02,-0.3 -0.68,-0.3l0 -1.75c0,-0 0.13,-0.29 0.32,-0.3 0.27,-0.01 1.27,0.03 1.44,-0.02 0.31,-0.09 0.52,-0.36 0.52,-0.73l0 -1.66c0,-0.49 -0.32,-0.75 -0.8,-0.75 -0.52,0 -1.05,0 -1.57,0 -0.06,-0.28 -0.45,-0.59 -0.8,-0.59l-4.51 0c-0.25,0 -0.53,0.18 -0.64,0.32 -0.15,0.18 -0.25,0.39 -0.25,0.71z"/>
   <path class="fil1" d="M5.44 5.33l0.09 0 0 0.64 -0.09 0 0 -0.64zm1.14 0.68l-0.52 0c-0.11,0 -0.09,-0.04 -0.18,-0.07 0,-0.49 -0.06,-0.43 0.09,-0.73 0.02,-0.04 0.03,-0.05 0.05,-0.09l0.06 -0.09c0,0.42 0.02,0.34 0.66,0.34 -0.03,0.14 -0.16,0.52 -0.16,0.64zm-0.87 -1c-0.19,-0.04 -0.59,-0.07 -0.59,0.2l0 0.87c0,0.36 0.66,0.19 0.66,0.19 0.09,0.01 0.06,0.06 0.14,0.06l0.75 0c0.21,0 0.23,-0.25 0.28,-0.47 0.08,-0.32 0.25,-0.64 0.05,-0.78 -0.11,-0.08 -0.45,-0.05 -0.61,-0.05 0,-0.35 0.06,-0.59 -0.25,-0.59 -0.18,0 -0.26,0.25 -0.35,0.4 -0.04,0.07 -0.06,0.09 -0.08,0.17z"/>
   <path class="fil1" d="M4.01 7.24c0.06,0.06 0.11,0.21 0.17,0.27 0.07,0.07 0.23,0.07 0.34,0.1 -0.05,0.08 -0.15,0.13 -0.2,0.21 -0.05,0.09 0.01,0.24 0.02,0.36 -0.13,-0.03 -0.17,-0.11 -0.32,-0.11 -0.1,0 -0.19,0.09 -0.3,0.11 0.03,-0.06 0.06,-0.28 0.02,-0.34 -0.03,-0.05 -0.18,-0.18 -0.17,-0.22 0.02,-0.04 0.21,-0.03 0.3,-0.1 0.05,-0.04 0.12,-0.19 0.14,-0.27zm-0.98 0.25c0,0.12 0.1,0.18 0.17,0.24 0.08,0.08 0.14,0.15 0.22,0.21 -0.03,0.32 -0.19,0.68 0.09,0.68 0.12,0 0.41,-0.21 0.5,-0.22 0.23,-0.01 0.89,0.75 0.61,-0.46 0.08,-0.05 0.14,-0.13 0.21,-0.2 0.16,-0.16 0.35,-0.38 -0.07,-0.44 -0.4,-0.06 -0.33,0 -0.52,-0.35 -0.05,-0.09 -0.09,-0.24 -0.21,-0.24 -0.21,0 -0.26,0.4 -0.38,0.51 -0.15,0.12 -0.62,0 -0.62,0.27z"/>
   <path class="fil1" d="M10.22 3.3c0.21,0 0.21,0.23 0.36,0.23 0.21,0 0.15,-0.23 0.36,-0.23 0.27,0 0.48,0.45 -0.06,0.85 -0.33,0.25 -0.28,0.21 -0.5,0.07 -0.73,-0.49 -0.37,-0.92 -0.17,-0.92zm-0.59 0.25c0,0.33 0.1,0.55 0.35,0.77 0.1,0.09 0.47,0.37 0.63,0.37 0.15,0 0.49,-0.28 0.61,-0.39 0.39,-0.34 0.51,-0.95 0.01,-1.26 -0.19,-0.12 -0.51,-0.1 -0.62,0.07 -0.16,-0.11 -0.35,-0.23 -0.63,-0.08 -0.15,0.08 -0.35,0.3 -0.35,0.52z"/>
   <path class="fil1" d="M6.67 12.34c0.31,0 0.85,0.07 0.92,-0.13 0.04,-0.11 -0.05,-0.21 -0.17,-0.21l-0.87 0c-0.12,0 -0.21,0.1 -0.17,0.21 0.04,0.1 0.15,0.13 0.28,0.13z"/>
   <path class="fil1" d="M6.83 10.15c0,0.28 0.32,0.26 0.32,0 0,-0.18 -0.32,-0.18 -0.32,0z"/>
   <path class="fil1" d="M6.19 10.15c0,0.26 0.32,0.25 0.32,0.02 0,-0.25 -0.32,-0.17 -0.32,-0.02z"/>
   <path class="fil1" d="M7.47 10.18c0,0.24 0.32,0.23 0.32,-0.02 0,-0.14 -0.32,-0.23 -0.32,0.02z"/>
  </g>
 </g>
</svg>
