<?xml version="1.0" encoding="UTF-8"?>
<!DOCTYPE svg PUBLIC "-//W3C//DTD SVG 1.1//EN" "http://www.w3.org/Graphics/SVG/1.1/DTD/svg11.dtd">
<!-- Creator: CorelDRAW -->
<svg xmlns="http://www.w3.org/2000/svg" xml:space="preserve" width="16.9333mm" height="16.9333mm" version="1.1" style="shape-rendering:geometricPrecision; text-rendering:geometricPrecision; image-rendering:optimizeQuality; fill-rule:evenodd; clip-rule:evenodd"
viewBox="0 0 15.19 15.19"
 xmlns:xlink="http://www.w3.org/1999/xlink"
 xmlns:xodm="http://www.corel.com/coreldraw/odm/2003">
 <defs>
  <style type="text/css">
   <![CDATA[
    .fil0 {fill:none}
    .fil1 {fill:black}
   ]]>
  </style>
 </defs>
 <g id="Layer_x0020_1">
  <metadata id="CorelCorpID_0Corel-Layer"/>
  <g id="_105553190472896">
   <circle class="fil0" cx="7.6" cy="7.6" r="7.6"/>
   <g>
    <path class="fil1" d="M10.4 8.79l-0.88 -0.71c-0.08,-0.06 -0.14,-0.11 -0.22,-0.18 -0.08,-0.06 -0.16,-0.11 -0.19,-0.21 -0.08,-0.23 0.13,-0.43 0.34,-0.38 0.1,0.02 0.17,0.1 0.24,0.16l1.33 1.06c0.38,0.3 -0.01,0.54 -0.21,0.69 -0.16,0.12 -1.22,1.01 -1.34,1.05 -0.22,0.06 -0.42,-0.14 -0.36,-0.36 0.03,-0.11 0.11,-0.15 0.18,-0.22l0.88 -0.71c0.05,-0.04 0.2,-0.15 0.23,-0.19zm2.29 -3.28l0 6.33c-0,0.4 -0.4,0.83 -0.86,0.83l-8.49 0c-0.24,0 -0.43,-0.12 -0.58,-0.27 -0.14,-0.14 -0.25,-0.32 -0.25,-0.58l0 -6.3 10.18 0zm-7.9 3.28c0.03,0.04 0.17,0.14 0.22,0.18l0.88 0.71c0.08,0.06 0.16,0.11 0.19,0.21 0.08,0.23 -0.13,0.43 -0.34,0.38 -0.14,-0.03 -1.37,-1.06 -1.57,-1.22 -0.2,-0.16 -0.21,-0.35 -0.01,-0.51 0.08,-0.06 0.14,-0.11 0.22,-0.18 0.16,-0.12 1.22,-1.01 1.34,-1.05 0.22,-0.06 0.42,0.14 0.36,0.36 -0.04,0.13 -0.26,0.28 -0.4,0.39l-0.89 0.72zm3.98 -2.03c-0.04,0.17 -0.19,0.48 -0.26,0.64l-1.47 3.44c-0.05,0.11 -0.08,0.21 -0.17,0.28 -0.22,0.15 -0.51,-0.06 -0.45,-0.31l1.74 -4.07c0.05,-0.11 0.08,-0.21 0.17,-0.28 0.09,-0.07 0.23,-0.07 0.33,0 0.04,0.03 0.08,0.07 0.1,0.12 0.04,0.08 0.03,0.12 0.01,0.19z"/>
    <path class="fil1" d="M9.45 3.72l1.67 0c0.47,0 0.47,0.6 0,0.6l-1.67 0c-0.47,0 -0.47,-0.6 0,-0.6zm3.24 -0.36l0 1.55 -10.18 0 0 -1.53c0,-0.28 0.12,-0.45 0.26,-0.59 0.14,-0.14 0.34,-0.26 0.57,-0.26l8.49 0c0.46,0 0.85,0.43 0.86,0.83zm-6.58 0.68c-0.01,-0.04 0.02,-0.15 0.08,-0.22 0.05,-0.05 0.11,-0.09 0.2,-0.1 0.38,-0.03 0.42,0.56 0.03,0.59 -0.09,0.01 -0.16,-0.03 -0.21,-0.08 -0.05,-0.05 -0.09,-0.12 -0.1,-0.2zm-1.19 0c-0,-0.02 0.02,-0.1 0.02,-0.12 0.02,-0.06 0.02,-0.06 0.06,-0.1 0.05,-0.05 0.11,-0.09 0.2,-0.1 0.38,-0.03 0.42,0.56 0.03,0.59 -0.16,0.01 -0.29,-0.12 -0.31,-0.27zm-1.19 0c-0.02,-0.1 0.09,-0.3 0.28,-0.31 0.17,-0.01 0.3,0.13 0.31,0.28 0.01,0.17 -0.13,0.3 -0.28,0.31 -0.16,0.01 -0.29,-0.12 -0.31,-0.27z"/>
   </g>
  </g>
 </g>
</svg>
