<?xml version="1.0" encoding="UTF-8"?>
<!DOCTYPE svg PUBLIC "-//W3C//DTD SVG 1.1//EN" "http://www.w3.org/Graphics/SVG/1.1/DTD/svg11.dtd">
<!-- Creator: CorelDRAW -->
<svg xmlns="http://www.w3.org/2000/svg" xml:space="preserve" width="7.0554mm" height="7.0551mm" version="1.1" style="shape-rendering:geometricPrecision; text-rendering:geometricPrecision; image-rendering:optimizeQuality; fill-rule:evenodd; clip-rule:evenodd"
viewBox="0 0 27.35 27.35"
 xmlns:xlink="http://www.w3.org/1999/xlink"
 xmlns:xodm="http://www.corel.com/coreldraw/odm/2003">
 <defs>
  <style type="text/css">
   <![CDATA[
    .fil1 {fill:red}
    .fil0 {fill:red;fill-rule:nonzero;fill-opacity:0.400000}
   ]]>
  </style>
 </defs>
 <g id="Layer_x0020_1">
  <metadata id="CorelCorpID_0Corel-Layer"/>
  <path class="fil0" d="M13.67 27.35c-1.05,0 -2.1,-0.4 -2.9,-1.2l-1 -1c-0.39,-0.39 -0.91,-0.6 -1.46,-0.6l-1.4 0c-2.27,0 -4.12,-1.85 -4.12,-4.12l0 -1.41c-0,-0.55 -0.21,-1.07 -0.6,-1.46l-0.98 -0.98c-1.61,-1.6 -1.62,-4.21 -0.02,-5.82l1 -1c0.39,-0.39 0.6,-0.91 0.6,-1.45l0 -1.4c0,-2.27 1.85,-4.12 4.12,-4.12l1.41 0c0.55,0 1.07,-0.21 1.46,-0.6l0.98 -0.98c1.6,-1.61 4.21,-1.62 5.82,-0.02l1 1c0.39,0.39 0.91,0.6 1.45,0.6l1.41 0c2.27,0 4.12,1.85 4.12,4.12l0 1.4c0,0.55 0.21,1.07 0.6,1.46l0.98 0.98c0.78,0.77 1.21,1.81 1.21,2.91 0,1.09 -0.42,2.12 -1.19,2.9 -0.01,0.01 -0.03,0.03 -0.04,0.04l-0.97 0.97c-0.39,0.39 -0.6,0.91 -0.6,1.46l0 1.4c0,2.27 -1.85,4.12 -4.12,4.12l-1.41 0c-0.55,0 -1.07,0.21 -1.46,0.6l-0.98 0.98c-0.8,0.81 -1.86,1.21 -2.92,1.21z"/>
  <path class="fil1" d="M11 11.01c-0.23,0.23 -0.52,0.35 -0.84,0.35 -0.3,0 -0.6,-0.12 -0.84,-0.35 -0.23,-0.23 -0.36,-0.53 -0.36,-0.85 0,-0.3 0.13,-0.6 0.35,-0.84 0.12,-0.12 0.27,-0.22 0.41,-0.27 0.41,-0.19 0.96,-0.08 1.29,0.26 0.12,0.12 0.21,0.24 0.26,0.38 0.06,0.14 0.1,0.3 0.1,0.47 0,0.33 -0.13,0.63 -0.37,0.85zm7.04 -1.7c-0.47,-0.47 -1.23,-0.47 -1.69,0l-7.03 7.03c-0.47,0.47 -0.47,1.22 0,1.69 0.23,0.23 0.53,0.35 0.85,0.35 0.32,0 0.62,-0.12 0.85,-0.35l7.03 -7.03c0.47,-0.47 0.47,-1.23 0,-1.69zm-0.39 6.77c-0.44,-0.19 -0.97,-0.08 -1.32,0.27 -0.07,0.08 -0.17,0.22 -0.24,0.37 -0.07,0.17 -0.08,0.35 -0.08,0.47 0,0.12 0.01,0.3 0.08,0.47 0.07,0.15 0.15,0.28 0.26,0.39 0.25,0.23 0.53,0.35 0.85,0.35 0.3,0 0.6,-0.12 0.85,-0.35 0.22,-0.22 0.34,-0.52 0.34,-0.85 0,-0.33 -0.12,-0.63 -0.34,-0.85 -0.12,-0.12 -0.27,-0.21 -0.39,-0.26z"/>
 </g>
</svg>
