<?xml version="1.0" encoding="UTF-8"?>
<!DOCTYPE svg PUBLIC "-//W3C//DTD SVG 1.1//EN" "http://www.w3.org/Graphics/SVG/1.1/DTD/svg11.dtd">
<!-- Creator: CorelDRAW -->
<svg xmlns="http://www.w3.org/2000/svg" xml:space="preserve" width="267.371mm" height="49.7449mm" version="1.1" style="shape-rendering:geometricPrecision; text-rendering:geometricPrecision; image-rendering:optimizeQuality; fill-rule:evenodd; clip-rule:evenodd"
viewBox="0 0 76370.14 14208.84"
 xmlns:xlink="http://www.w3.org/1999/xlink"
 xmlns:xodm="http://www.corel.com/coreldraw/odm/2003">
 <defs>
  <style type="text/css">
   <![CDATA[
    .fil1 {fill:red}
    .fil0 {fill:white}
   ]]>
  </style>
 </defs>
 <g id="Layer_x0020_1">
  <metadata id="CorelCorpID_0Corel-Layer"/>
  <path class="fil0" d="M416.6 5854.04l5437.42 -5437.44c555.44,-555.44 1464.33,-555.44 2019.75,0l5437.44 5437.44c555.42,555.42 555.42,1464.3 0,2019.72l-5437.44 5437.44c-555.42,555.44 -1464.3,555.44 -2019.75,0l-5437.42 -5437.44c-555.44,-555.42 -555.44,-1464.3 0,-2019.72zm1388.32 1009.86l10117.96 0 -5058.98 5058.98 -5058.98 -5058.98z"/>
  <path class="fil0" d="M19114.43 4052.63c426.14,0 758.7,-60.64 994.29,-178.41 372.44,-185.38 559.53,-521.42 559.53,-1004.72 0,-486.78 -199.2,-815.91 -594.18,-983.87 -223.48,-95.32 -554.3,-142.1 -994.26,-142.1l-1801.55 0 0 2309.09 1836.17 0zm341.25 3440.26c618.4,0 1060.13,-180.21 1323.43,-538.76 166.32,-225.22 249.47,-500.6 249.47,-821.08 0,-542.16 -242.53,-911.14 -725.82,-1106.89 -258.1,-103.94 -597.57,-157.7 -1020.34,-157.7l-2004.15 0 0 2624.43 2177.42 0zm-3168.25 -6592.95l3202.87 0c873.07,0 1493.21,261.58 1862.16,781.24 216.54,308.37 325.68,663.47 325.68,1067.07 0,469.47 -133.39,855.73 -401.86,1157.13 -138.56,157.61 -337.82,303.17 -597.66,436.51 381.12,145.56 666.96,308.37 857.44,492 334.36,323.91 502.37,772.55 502.37,1344.22 0,481.55 -150.7,914.63 -452.13,1304.32 -450.39,582.04 -1165.76,873.07 -2146.2,873.07l-3152.69 0 0 -7455.56zm6861.39 0l914.6 0 0 7455.56 -914.6 0 0 -7455.56zm2984.62 6009.17c0,263.27 96.97,471.15 289.26,623.62 192.35,152.39 420.94,228.59 686.01,228.59 320.45,0 632.22,-74.49 933.68,-223.45 507.51,-245.93 760.47,-651.3 760.47,-1212.6l0 -736.16c-110.88,71.01 -254.67,131.65 -431.39,178.44 -176.61,46.79 -348.16,81.41 -517.91,100.46l-552.59 71.04c-332.56,45.04 -580.29,114.37 -746.59,209.6 -280.64,157.64 -420.94,412.26 -420.94,760.47zm2212.06 -1846.62c209.66,-27.65 351.64,-116.02 422.71,-265.01 39.82,-81.43 60.55,-197.46 60.55,-349.84 0,-311.88 -110.8,-537.05 -332.56,-677.35 -221.71,-140.3 -538.71,-211.37 -952.73,-211.37 -476.32,0 -814.11,129.93 -1013.34,386.32 -112.63,142.05 -185.29,353.33 -218.25,633.99l-853.99 0c17.37,-668.64 235.59,-1134.6 653.05,-1397.86 417.51,-261.61 902.49,-393.29 1453.39,-393.29 639.16,0 1158.79,121.28 1558.99,365.5 394.95,244.27 592.38,621.88 592.38,1136.4l0 3131.83c0,95.32 20.82,171.52 58.95,228.71 39.82,57.13 121.22,86.6 245.93,86.6 41.56,0 86.6,-3.48 136.88,-8.65 51.96,-5.2 105.66,-12.14 162.81,-22.51l0 675.55c-142.02,39.82 -251.16,65.81 -323.91,76.15 -74.49,8.68 -176.69,13.91 -304.86,13.91 -315.31,0 -543.93,-110.85 -686.01,-334.31 -74.46,-117.77 -126.42,-285.86 -157.58,-502.37 -185.41,244.3 -452.16,455.59 -800.32,634.02 -349.93,180.18 -732.77,268.52 -1153.68,268.52 -504.09,0 -914.6,-152.47 -1235.08,-459.1 -318.71,-304.89 -479.78,-689.41 -479.78,-1148.48 0,-504.09 157.58,-895.58 472.84,-1172.67 313.51,-277.18 727.54,-448.65 1238.54,-512.74l1455.08 -181.95zm4964.66 -2300.38c611.43,0 1110.32,148.99 1493.15,446.9 384.55,298 614.91,810.66 692.86,1538.28l-886.89 0c-55.41,-334.36 -178.41,-613.23 -370.67,-834.94 -194,-221.77 -502.34,-332.65 -928.45,-332.65 -582.07,0 -997.75,284.15 -1248.96,852.27 -162.87,368.98 -244.22,824.54 -244.22,1365.05 0,545.62 116.02,1004.69 346.39,1375.36 228.68,372.44 590.69,559.53 1086.15,559.53 377.61,0 679.04,-116.05 900.72,-348.16 220.05,-232.16 374.18,-549.16 459.04,-951.02l886.89 0c-100.46,720.63 -355.04,1247.25 -760.39,1579.78 -405.43,334.33 -925.05,500.6 -1557.28,500.6 -711.97,0 -1278.38,-259.78 -1701.06,-779.5 -422.71,-519.63 -633.99,-1167.5 -633.99,-1945.28 0,-954.45 232.08,-1697.55 694.6,-2229.43 464.24,-530.02 1054.9,-796.8 1772.1,-796.8zm3079.88 -1862.16l878.27 0 0 4328.87 2343.74 -2309.07 1167.53 0 -2080.44 2035.37 2198.21 3400.39 -1167.5 0 -1695.87 -2740.43 -765.67 699.86 0 2040.57 -878.27 0 0 -7455.56zm11692.69 3415.95c472.9,0 848.79,-95.23 1124.23,-284.06 275.41,-188.8 413.97,-531.79 413.97,-1025.51 0,-531.76 -193.95,-893.78 -578.52,-1086.07 -206.14,-100.46 -483.32,-152.47 -828.02,-152.47l-2466.68 0 0 2548.11 2335.03 0zm-3344.92 -3415.95l3452.29 0c568.18,0 1035.88,83.15 1404.83,249.47 699.83,316.97 1051.5,904.17 1051.5,1759.93 0,446.9 -93.57,812.43 -277.15,1096.49 -185.35,284.12 -443.48,512.77 -774.35,686.01 291.06,117.77 509.29,273.67 656.53,465.95 147.27,194.03 230.39,505.8 247.76,938.88l34.62 999.55c10.34,284.03 34.65,497.09 71.01,635.68 60.64,235.56 169.75,388.03 325.65,455.56l0 168.04 -1238.51 0c-34.62,-64.12 -60.64,-147.27 -81.43,-249.42 -20.77,-100.49 -38.1,-296.2 -50.24,-587.24l-62.35 -1243.76c-22.54,-486.75 -204.4,-814.11 -542.22,-980.47 -192.23,-90.03 -495.4,-136.82 -907.63,-136.82l-2300.41 0 0 3197.7 -1009.89 0 0 -7455.56zm9419.87 6866.64c604.54,0 1020.26,-228.71 1245.48,-687.72 225.17,-457.36 337.79,-968.33 337.79,-1529.6 0,-507.54 -81.43,-919.77 -244.25,-1238.54 -256.36,-500.63 -699.83,-751.82 -1328.68,-751.82 -559.44,0 -964.81,213.08 -1217.74,640.96 -254.59,426.14 -381.06,940.62 -381.06,1541.68 0,578.58 126.48,1061.87 381.06,1446.42 252.93,386.26 654.82,578.61 1207.4,578.61zm34.65 -5004.48c701.55,0 1292.27,233.85 1777.24,701.57 483.29,465.98 725.82,1153.68 725.82,2059.65 0,876.47 -213.05,1600.55 -639.19,2172.19 -427.88,571.67 -1087.87,857.44 -1985.13,857.44 -748.36,0 -1340.77,-252.9 -1780.73,-758.7 -440.05,-505.8 -660.01,-1184.84 -660.01,-2037.08 0,-912.91 232.08,-1640.45 694.66,-2182.64 464.18,-540.48 1086.07,-812.43 1867.33,-812.43zm5745.84 5004.48c604.54,0 1020.26,-228.71 1245.48,-687.72 225.19,-457.36 337.82,-968.33 337.82,-1529.6 0,-507.54 -81.49,-919.77 -244.27,-1238.54 -256.36,-500.63 -699.8,-751.82 -1328.63,-751.82 -559.5,0 -964.9,213.08 -1217.8,640.96 -254.59,426.14 -381.04,940.62 -381.04,1541.68 0,578.58 126.45,1061.87 381.04,1446.42 252.9,386.26 654.84,578.61 1207.4,578.61zm34.65 -5004.48c701.55,0 1292.27,233.85 1777.27,701.57 483.26,465.98 725.77,1153.68 725.77,2059.65 0,876.47 -213.05,1600.55 -639.16,2172.19 -427.85,571.67 -1087.87,857.44 -1985.13,857.44 -748.33,0 -1340.77,-252.9 -1780.73,-758.7 -440.05,-505.8 -660.01,-1184.84 -660.01,-2037.08 0,-912.91 232.13,-1640.45 694.66,-2182.64 464.21,-540.48 1086.09,-812.43 1867.33,-812.43zm3589.19 157.64l902.55 0 0 772.58c216.45,-268.52 412.2,-462.5 588.92,-583.75 301.4,-206.14 642.71,-310.06 1025.51,-310.06 433.02,0 781.18,107.37 1044.54,320.42 148.96,121.22 284.03,299.66 407.03,537.02 202.69,-291 441.76,-505.8 715.46,-646.16 273.69,-140.3 582.07,-211.28 923.28,-211.28 730.99,0 1228.11,263.27 1491.47,791.61 141.99,284.09 213.08,666.9 213.08,1146.73l0 3618.64 -947.59 0 0 -3776.28c0,-362.01 -91.77,-609.74 -271.98,-744.82 -181.83,-135.16 -401.86,-204.43 -663.39,-204.43 -358.56,0 -666.93,121.28 -925.05,360.3 -259.78,240.79 -388.01,642.62 -388.01,1203.89l0 3161.34 -928.45 0 0 -3547.57c0,-369.01 -45.1,-637.48 -133.42,-807.26 -138.59,-252.87 -396.66,-379.32 -776.01,-379.32 -344.76,0 -658.3,133.31 -940.65,400.12 -282.32,266.75 -424.4,751.79 -424.4,1451.59l0 2882.45 -912.89 0 0 -5435.76zm9199.93 3731.21c27.71,303.17 103.94,537.02 228.62,699.83 230.39,294.52 628.85,441.79 1196.98,441.79 339.5,0 637.51,-74.58 893.89,-221.74 258.07,-147.24 386.29,-374.15 386.29,-682.52 0,-232.13 -103.97,-410.57 -310.14,-531.76 -131.65,-74.58 -393.18,-161.18 -781.21,-259.87l-725.8 -181.89c-464.27,-116.08 -805.49,-244.22 -1025.54,-386.32 -391.46,-245.93 -588.89,-588.92 -588.89,-1025.48 0,-514.46 185.29,-930.17 556.02,-1247.16 370.72,-318.71 869.61,-478.12 1494.89,-478.12 819.4,0 1408.35,240.79 1770.39,720.65 226.91,304.86 337.79,633.94 330.85,985.61l-862.64 0c-17.31,-206.11 -90.12,-395 -218.28,-564.73 -209.6,-239.08 -573.38,-360.33 -1091.29,-360.33 -344.7,0 -606.26,67.58 -784.69,199.23 -176.72,131.68 -266.81,304.86 -266.81,521.4 0,237.33 117.82,427.88 351.67,569.9 135.08,83.15 334.33,157.64 597.6,221.77l604.54 147.22c656.56,159.41 1096.52,313.54 1320,462.53 355.07,233.85 531.76,601.03 531.76,1101.66 0,483.32 -183.58,900.83 -550.87,1252.39 -367.18,353.44 -924.97,528.39 -1676.76,528.39 -808.97,0 -1380.58,-183.61 -1718.4,-550.87 -336.05,-367.21 -516.23,-821.08 -540.42,-1361.56l878.24 0z"/>
  <path class="fil0" d="M48082.72 4315.9c472.9,0 848.79,-95.23 1124.23,-284.06 275.41,-188.8 413.97,-531.79 413.97,-1025.51 0,-531.76 -193.95,-893.78 -578.52,-1086.07 -206.14,-100.46 -483.32,-152.47 -828.02,-152.47l-2466.68 0 0 2548.11 2335.03 0zm-2464.54 -3415.95l2571.91 0c568.18,0 1035.88,83.15 1404.83,249.47 699.83,316.97 1051.5,904.17 1051.5,1759.93 0,446.9 -93.57,812.43 -277.15,1096.49 -185.35,284.12 -443.48,512.77 -774.35,686.01 291.06,117.77 509.29,273.67 656.53,465.95 147.27,194.03 230.39,505.8 247.76,938.88l34.62 999.55c10.34,284.03 34.65,497.09 71.01,635.68 60.64,235.56 169.75,388.03 325.65,455.56l0 168.04 -1238.51 0c-34.62,-64.12 -60.64,-147.27 -81.43,-249.42 -20.77,-100.49 -38.1,-296.2 -50.24,-587.24l-62.35 -1243.76c-22.54,-486.75 -204.4,-814.11 -542.22,-980.47 -192.23,-90.03 -495.4,-136.82 -907.63,-136.82l-2300.41 0 0 3197.7 -129.51 0 0 -7455.56z"/>
  <path class="fil1" d="M26600.78 12068.15l-452.22 -1316.52 -481.32 1316.52 933.54 0zm-663.41 -1759.05l456.36 0 1081.75 2980.71 -442.56 0 -301.92 -892.69 -1179.41 0 -322.05 892.69 -414.14 0 1121.97 -2980.71zm2088.01 1919.75c0,232.65 49.19,427.28 148.16,584.49 98.34,156.53 256.96,234.76 474.41,234.76 168.98,0 308.23,-72.72 416.94,-218.14 108.71,-145.42 163.47,-353.9 163.47,-625.31 0,-275.04 -56.16,-477.92 -168.32,-610.2 -112.17,-131.59 -250.7,-197.4 -416.23,-197.4 -183.52,0 -333.11,69.98 -447.39,210.57 -114.28,140.59 -171.04,347.62 -171.04,621.23zm549.87 -1150.31c166.21,0 305.46,34.59 417.63,105.23 65.04,40.87 138.45,111.48 221.59,213.28l0 -1097.63 350.42 0 0 2990.39 -328.25 0 0 -302.63c-85.2,134.36 -186.32,230.62 -302.63,290.15 -116.4,59.55 -249.39,89.37 -399.57,89.37 -242.45,0 -451.56,-101.83 -628.85,-305.46 -177.32,-203.57 -265.93,-474.38 -265.93,-812.31 0,-316.54 81.01,-590.78 242.33,-822.74 162.04,-232.05 392.66,-347.65 693.26,-347.65zm1708.52 38.05l579.61 1769.47 606.66 -1769.47 400.34 0 -819.97 2173.22 -389.89 0 -801.29 -2173.22 424.54 0zm2803.38 -48.5c154.44,0 304.06,36.02 448.82,108.77 144.73,72.01 254.87,165.52 330.31,280.49 73.47,110.08 121.91,237.5 146.16,383.64 22.17,100.4 32.51,259.73 32.51,479.24l-1592.78 0c6.88,220.25 58.81,396.89 156.5,530.51 97.63,132.96 247.93,199.43 452.22,199.43 191.12,0 342.82,-62.98 456.36,-188.38 65.12,-73.32 111.48,-157.84 138.56,-253.41l358.7 0c-9,79.58 -40.82,168.27 -94.17,266.64 -53.33,97.63 -113.6,177.92 -179.38,240.28 -110.8,108.08 -248.64,181.46 -412.08,218.82 -87.89,22.17 -187.66,32.59 -298.46,32.59 -270.07,0 -499.35,-98.34 -687.66,-295 -187.75,-196.69 -281.92,-472.35 -281.92,-826.97 0,-348.99 94.89,-632.31 283.95,-849.7 189.75,-218.17 437.02,-326.94 742.39,-326.94zm582.44 961.96c-14.54,-158.58 -49.19,-284.63 -103.17,-379.49 -100.46,-175.89 -267.32,-263.84 -501.4,-263.84 -167.61,0 -308.2,60.21 -421.71,181.43 -113.6,121.17 -173.89,274.92 -180.81,461.9l1207.09 0zm833.85 -913.46l346.99 0 0 375.35c28.36,-72.69 98.29,-162.01 209.14,-266.64 110.83,-104.51 238.93,-157.21 383.61,-157.21 6.97,0 18.08,0.69 34.68,2.14 15.91,1.34 43.62,4.11 83.06,8.31l0 384.98c-22.11,-4.11 -41.53,-6.17 -60.21,-7.6 -18.02,-1.37 -38.1,-2.06 -59.58,-2.06 -184.18,0 -325.45,58.9 -423.82,177.32 -99.03,118.42 -148.16,254.81 -148.16,408.57l0 1250.05 -365.7 0 0 -2173.22zm1446.74 -606.69l369.1 0 0 606.69 347.02 0 0 298.52 -347.02 0 0 1418.32c0,75.52 26.36,126.05 77.64,152.33 28.31,14.6 75.44,22.14 141.93,22.14 17.31,0 36.7,-0.6 56.78,-1.31 20.08,-0.74 43.59,-2.09 70.67,-4.83l0 288.06c-41.62,12.48 -85.2,20.79 -130.93,26.34 -45.04,5.54 -94.17,8.31 -146.84,8.31 -170.35,0 -286.01,-43.64 -346.96,-130.93 -60.9,-87.23 -91.37,-200.8 -91.37,-340.05l0 -1438.37 -294.4 0 0 -298.52 294.4 0 0 -606.69zm1081.78 617.08l371.15 0 0 2162.82 -371.15 0 0 -2162.82zm0 -817.88l371.15 0 0 414.11 -371.15 0 0 -414.11zm1139.88 2299.27c11.08,121.19 41.56,214.65 91.43,279.75 92.09,117.71 251.39,176.61 478.52,176.61 135.76,0 254.9,-29.76 357.36,-88.6 103.2,-58.87 154.44,-149.64 154.44,-272.89 0,-92.83 -41.5,-164.18 -123.97,-212.6 -52.61,-29.82 -157.21,-64.38 -312.37,-103.89l-290.12 -72.72c-185.63,-46.39 -322.05,-97.66 -409.97,-154.41 -156.53,-98.37 -235.48,-235.53 -235.48,-410 0,-205.69 74.04,-371.92 222.31,-498.69 148.19,-127.36 347.65,-191.15 597.66,-191.15 327.59,0 563.01,96.29 707.8,288.15 90.66,121.85 134.99,253.44 132.25,394.03l-344.9 0c-6.91,-82.41 -36.02,-157.84 -87.26,-225.74 -83.81,-95.6 -229.19,-144.05 -436.31,-144.05 -137.79,0 -242.39,26.96 -313.74,79.63 -70.58,52.64 -106.66,121.85 -106.66,208.4 0,94.94 47.16,171.07 140.59,227.88 54.04,33.19 133.71,63.04 238.93,88.69l241.7 58.84c262.5,63.7 438.42,125.34 527.74,184.92 141.99,93.49 212.63,240.28 212.63,440.42 0,193.26 -73.38,360.16 -220.25,500.75 -146.82,141.25 -369.78,211.2 -670.35,211.2 -323.42,0 -551.99,-73.35 -687.04,-220.2 -134.33,-146.87 -206.37,-328.28 -216.11,-544.33l351.16 0zm1860.91 -1481.38l371.15 0 0 2162.82 -371.15 0 0 -2162.82zm0 -817.88l371.15 0 0 414.11 -371.15 0 0 -414.11zm923.14 807.49l346.93 0 0 308.88c102.49,-127.45 211.25,-218.82 326.22,-274.24 114.94,-55.41 243.05,-83.15 383.64,-83.15 308.17,0 516.65,107.37 624.74,322.74 59.47,117.71 89.32,286.01 89.32,504.92l0 1394.07 -371.24 0 0 -1369.87c0,-132.25 -19.39,-238.93 -58.84,-319.94 -65.12,-135.73 -182.15,-202.94 -353.19,-202.94 -86.55,0 -157.21,8.31 -212.6,26.34 -100.46,29.79 -188.38,89.37 -263.93,177.98 -60.95,72.07 -100.43,146.16 -118.4,222.31 -18.74,76.89 -27.65,185.6 -27.65,327.62l0 1138.51 -365.01 0 0 -2173.22zm3077.65 -38.05c170.38,0 319.28,41.53 446.67,125.34 68.58,47.76 139.22,116.34 210.51,207.06l0 -273.55 337.31 0 0 1975.84c0,276.29 -40.85,493.78 -121.82,653.05 -151.7,295 -437.71,442.56 -858.1,442.56 -234.08,0 -430.76,-52.67 -590.75,-157.21 -159.33,-104.6 -248.64,-268.75 -268.01,-491.69l371.92 0c17.31,96.92 52.61,172.38 105.2,225.08 82.46,80.98 212.63,121.85 389.26,121.85 280.46,0 463.33,-99.06 549.87,-296.4 51.93,-116.37 75.49,-324.11 71.27,-623.28 -73.38,111.48 -161.3,193.95 -263.84,247.9 -102.43,54.04 -238.9,81.06 -407.86,81.06 -235.53,0 -441.16,-83.83 -617.74,-250.73 -176.61,-166.9 -264.58,-443.22 -264.58,-828.94 0,-363.56 88.6,-647.56 266.64,-851.82 177.98,-204.4 392.66,-306.11 644.05,-306.11zm657.19 1115.66c0,-269.41 -55.36,-468.87 -166.15,-598.37 -110.8,-130.16 -252.13,-195.32 -423.82,-195.32 -256.96,0 -432.85,120.57 -527.71,361.53 -49.93,128.19 -74.81,297.12 -74.81,504.86 0,245.19 49.19,431.48 148.9,559.59 99.69,127.45 232.65,191.17 400.97,191.17 262.5,0 446.67,-117.71 553.33,-354.59 59.55,-134.36 89.29,-290.18 89.29,-468.87zm974.44 653.07l423.85 0 0 442.53 -423.85 0 0 -442.53zm3526.52 -2619.18c376.75,0 669.67,99.71 878.1,298.46 208.48,198.74 324.14,424.51 346.96,677.32l-393.32 0c-44.99,-191.86 -133.68,-344.19 -267.32,-456.39 -133.02,-112.25 -319.94,-168.35 -560.96,-168.35 -292.97,0 -530.48,103.23 -710.57,309.6 -180.78,206.43 -271.52,522.2 -271.52,948.13 0,349.02 81.75,632.25 244.47,849.05 163.47,217.48 406.54,326.19 729.97,326.19 297.09,0 523.6,-114.25 679.35,-342.82 82.46,-120.51 144.1,-279.15 184.95,-475.1l393.38 0c-35.33,313.68 -151.7,576.87 -349.02,789.49 -236.88,255.56 -556.13,383.01 -957.79,383.01 -346.3,0 -637.16,-104.57 -871.98,-314.4 -310.2,-277.07 -464.64,-705.03 -464.64,-1284.01 0,-439.76 116.31,-800.58 349.07,-1081.75 251.36,-305.43 598.29,-458.44 1040.88,-458.44zm2558.2 2826.23c241.7,0 407.91,-91.43 497.95,-274.92 90.03,-182.86 135.08,-387.15 135.08,-611.49 0,-202.94 -32.51,-367.75 -97.66,-495.2 -102.51,-200.14 -279.81,-300.54 -531.19,-300.54 -223.68,0 -385.75,85.18 -486.86,256.21 -101.8,170.38 -152.3,376.04 -152.3,616.34 0,231.34 50.5,424.57 152.3,578.29 101.11,154.44 261.76,231.31 482.69,231.31zm13.91 -2000.78c280.49,0 516.6,93.52 710.49,280.52 193.26,186.26 290.2,461.21 290.2,823.43 0,350.39 -85.23,639.91 -255.53,868.47 -171.09,228.54 -434.93,342.79 -793.66,342.79 -299.2,0 -536.02,-101.09 -711.97,-303.34 -175.89,-202.2 -263.87,-473.67 -263.87,-814.43 0,-364.98 92.83,-655.84 277.72,-872.58 185.6,-216.08 434.25,-324.85 746.62,-324.85zm1434.94 63.04l346.93 0 0 308.88c102.49,-127.45 211.25,-218.82 326.22,-274.24 114.97,-55.41 243.05,-83.15 383.64,-83.15 308.17,0 516.65,107.37 624.74,322.74 59.5,117.71 89.32,286.01 89.32,504.92l0 1394.07 -371.24 0 0 -1369.87c0,-132.25 -19.39,-238.93 -58.87,-319.94 -65.1,-135.73 -182.12,-202.94 -353.16,-202.94 -86.55,0 -157.21,8.31 -212.6,26.34 -100.46,29.79 -188.38,89.37 -263.93,177.98 -60.95,72.07 -100.4,146.16 -118.4,222.31 -18.71,76.89 -27.65,185.6 -27.65,327.62l0 1138.51 -365.01 0 0 -2173.22zm2383.76 -606.69l369.1 0 0 606.69 347.02 0 0 298.52 -347.02 0 0 1418.32c0,75.52 26.31,126.05 77.61,152.33 28.33,14.6 75.46,22.14 141.96,22.14 17.31,0 36.68,-0.6 56.78,-1.31 20.08,-0.74 43.59,-2.09 70.67,-4.83l0 288.06c-41.62,12.48 -85.2,20.79 -130.93,26.34 -45.04,5.54 -94.17,8.31 -146.87,8.31 -170.32,0 -286.01,-43.64 -346.93,-130.93 -60.9,-87.23 -91.37,-200.8 -91.37,-340.05l0 -1438.37 -294.4 0 0 -298.52 294.4 0 0 -606.69zm1986.18 558.19c154.41,0 304.03,36.02 448.82,108.77 144.7,72.01 254.81,165.52 330.34,280.49 73.38,110.08 121.82,237.5 146.1,383.64 22.17,100.4 32.53,259.73 32.53,479.24l-1592.84 0c6.91,220.25 58.9,396.89 156.53,530.51 97.63,132.96 247.96,199.43 452.24,199.43 191.15,0 342.82,-62.98 456.36,-188.38 65.12,-73.32 111.51,-157.84 138.53,-253.41l358.76 0c-9.08,79.58 -40.9,168.27 -94.17,266.64 -53.36,97.63 -113.63,177.92 -179.38,240.28 -110.85,108.08 -248.67,181.46 -412.14,218.82 -87.92,22.17 -187.63,32.59 -298.4,32.59 -270.15,0 -499.4,-98.34 -687.75,-295 -187.66,-196.69 -281.84,-472.35 -281.84,-826.97 0,-348.99 94.86,-632.31 283.95,-849.7 189.72,-218.17 436.96,-326.94 742.36,-326.94zm582.46 961.96c-14.57,-158.58 -49.19,-284.63 -103.17,-379.49 -100.46,-175.89 -267.32,-263.84 -501.43,-263.84 -167.61,0 -308.2,60.21 -421.74,181.43 -113.6,121.17 -173.89,274.92 -180.78,461.9l1207.12 0zm824.17 -913.46l346.93 0 0 308.88c102.43,-127.45 211.23,-218.82 326.19,-274.24 114.91,-55.41 243.05,-83.15 383.64,-83.15 308.2,0 516.65,107.37 624.71,322.74 59.53,117.71 89.32,286.01 89.32,504.92l0 1394.07 -371.21 0 0 -1369.87c0,-132.25 -19.39,-238.93 -58.84,-319.94 -65.12,-135.73 -182.15,-202.94 -353.22,-202.94 -86.55,0 -157.21,8.31 -212.57,26.34 -100.49,29.79 -188.4,89.37 -263.93,177.98 -60.93,72.07 -100.37,146.16 -118.4,222.31 -18.71,76.89 -27.68,185.6 -27.68,327.62l0 1138.51 -364.95 0 0 -2173.22zm2383.7 -606.69l369.12 0 0 606.69 347.02 0 0 298.52 -347.02 0 0 1418.32c0,75.52 26.31,126.05 77.58,152.33 28.33,14.6 75.49,22.14 141.96,22.14 17.34,0 36.7,-0.6 56.81,-1.31 20.11,-0.74 43.62,-2.09 70.67,-4.83l0 288.06c-41.62,12.48 -85.23,20.79 -130.96,26.34 -44.99,5.54 -94.14,8.31 -146.82,8.31 -170.35,0 -286.03,-43.64 -346.96,-130.93 -60.93,-87.23 -91.4,-200.8 -91.4,-340.05l0 -1438.37 -294.35 0 0 -298.52 294.35 0 0 -606.69zm1168.99 2337.37l423.85 0 0 442.53 -423.85 0 0 -442.53zm3572.91 -779.12l-452.24 -1316.52 -481.29 1316.52 933.54 0zm-663.44 -1759.05l456.36 0 1081.75 2980.71 -442.53 0 -301.94 -892.69 -1179.38 0 -322.05 892.69 -414.14 0 1121.94 -2980.71zm1996.61 0l407.89 0 0 2980.71 -407.89 0 0 -2980.71z"/>
  <polygon class="fil1" points="1804.92,6863.9 11922.88,6863.9 6863.9,11922.88 "/>
 </g>
</svg>
