<?xml version="1.0" encoding="UTF-8"?>
<!DOCTYPE svg PUBLIC "-//W3C//DTD SVG 1.1//EN" "http://www.w3.org/Graphics/SVG/1.1/DTD/svg11.dtd">
<!-- Creator: CorelDRAW -->
<svg xmlns="http://www.w3.org/2000/svg" xml:space="preserve" width="8.4666mm" height="8.4666mm" version="1.1" style="shape-rendering:geometricPrecision; text-rendering:geometricPrecision; image-rendering:optimizeQuality; fill-rule:evenodd; clip-rule:evenodd"
viewBox="0 0 30.31 30.31"
 xmlns:xlink="http://www.w3.org/1999/xlink"
 xmlns:xodm="http://www.corel.com/coreldraw/odm/2003">
 <defs>
  <style type="text/css">
   <![CDATA[
    .fil0 {fill:red;fill-rule:nonzero}
   ]]>
  </style>
 </defs>
 <g id="Layer_x0020_1">
  <metadata id="CorelCorpID_0Corel-Layer"/>
  <path class="fil0" d="M29.46 0.88c-0.76,-0.78 -1.88,-1.07 -2.93,-0.76l-24.4 7.09c-1.1,0.31 -1.89,1.19 -2.1,2.31 -0.22,1.14 0.54,2.58 1.52,3.19l7.63 4.69c0.78,0.48 1.79,0.36 2.44,-0.29l8.73 -8.79c0.44,-0.46 1.17,-0.46 1.61,0 0.44,0.44 0.44,1.16 0,1.62l-8.75 8.79c-0.65,0.65 -0.77,1.67 -0.29,2.45l4.66 7.71c0.55,0.92 1.49,1.43 2.52,1.43 0.12,0 0.26,0 0.38,-0.02 1.18,-0.15 2.12,-0.96 2.47,-2.11l7.23 -24.37c0.32,-1.04 0.03,-2.17 -0.73,-2.94z"/>
 </g>
</svg>
