<?xml version="1.0" encoding="UTF-8"?>
<!DOCTYPE svg PUBLIC "-//W3C//DTD SVG 1.1//EN" "http://www.w3.org/Graphics/SVG/1.1/DTD/svg11.dtd">
<!-- Creator: CorelDRAW -->
<svg xmlns="http://www.w3.org/2000/svg" xml:space="preserve" width="7.1968mm" height="8.4668mm" version="1.1" style="shape-rendering:geometricPrecision; text-rendering:geometricPrecision; image-rendering:optimizeQuality; fill-rule:evenodd; clip-rule:evenodd"
viewBox="0 0 21.52 25.31"
 xmlns:xlink="http://www.w3.org/1999/xlink"
 xmlns:xodm="http://www.corel.com/coreldraw/odm/2003">
 <defs>
  <style type="text/css">
   <![CDATA[
    .fil0 {fill:red}
   ]]>
  </style>
 </defs>
 <g id="Layer_x0020_1">
  <metadata id="CorelCorpID_0Corel-Layer"/>
  <path class="fil0" d="M10.41 25.2c0.14,0.07 0.3,0.11 0.45,0.11 0.16,-0 0.31,-0.04 0.45,-0.11l4.52 -2.41c1.28,-0.68 2.28,-1.45 3.07,-2.33 1.7,-1.94 2.63,-4.41 2.61,-6.96l-0.05 -8.4c-0.01,-0.97 -0.64,-1.83 -1.58,-2.15l-8.4 -2.82c-0.51,-0.17 -1.06,-0.17 -1.56,0.01l-8.37 2.92c-0.94,0.33 -1.56,1.2 -1.55,2.17l0.05 8.4c0.02,2.55 0.98,5.01 2.71,6.93 0.79,0.88 1.8,1.63 3.1,2.3l4.56 2.36zm-1.2 -9.88c0.19,0.18 0.43,0.27 0.68,0.27 0.24,-0 0.49,-0.09 0.67,-0.28l4.93 -4.87c0.37,-0.37 0.37,-0.95 -0.01,-1.32 -0.38,-0.36 -0.98,-0.36 -1.35,0.01l-4.26 4.2 -1.75 -1.68c-0.38,-0.36 -0.98,-0.36 -1.35,0.01 -0.37,0.37 -0.37,0.95 0.01,1.32l2.42 2.33z"/>
 </g>
</svg>
