<?xml version="1.0" encoding="UTF-8"?>
<!DOCTYPE svg PUBLIC "-//W3C//DTD SVG 1.1//EN" "http://www.w3.org/Graphics/SVG/1.1/DTD/svg11.dtd">
<!-- Creator: CorelDRAW -->
<svg xmlns="http://www.w3.org/2000/svg" xml:space="preserve" width="8.4677mm" height="8.0438mm" version="1.1" style="shape-rendering:geometricPrecision; text-rendering:geometricPrecision; image-rendering:optimizeQuality; fill-rule:evenodd; clip-rule:evenodd"
viewBox="0 0 32.81 31.16"
 xmlns:xlink="http://www.w3.org/1999/xlink"
 xmlns:xodm="http://www.corel.com/coreldraw/odm/2003">
 <defs>
  <style type="text/css">
   <![CDATA[
    .fil0 {fill:red;fill-rule:nonzero}
   ]]>
  </style>
 </defs>
 <g id="Layer_x0020_1">
  <metadata id="CorelCorpID_0Corel-Layer"/>
  <path class="fil0" d="M26.11 19.39c-0.42,0.41 -0.62,1.01 -0.52,1.59l1.46 8.07c0.12,0.68 -0.17,1.38 -0.74,1.77 -0.56,0.41 -1.31,0.46 -1.92,0.13l-7.26 -3.79c-0.25,-0.13 -0.53,-0.21 -0.82,-0.22l-0.44 0c-0.15,0.02 -0.31,0.07 -0.44,0.15l-7.27 3.81c-0.36,0.18 -0.77,0.24 -1.16,0.18 -0.97,-0.18 -1.62,-1.11 -1.46,-2.08l1.46 -8.07c0.1,-0.59 -0.1,-1.19 -0.52,-1.61l-5.92 -5.74c-0.5,-0.48 -0.67,-1.2 -0.44,-1.85 0.22,-0.65 0.78,-1.12 1.46,-1.23l8.15 -1.18c0.62,-0.06 1.16,-0.44 1.44,-1l3.59 -7.36c0.09,-0.16 0.2,-0.31 0.33,-0.44l0.15 -0.11c0.08,-0.09 0.17,-0.16 0.26,-0.21l0.18 -0.07 0.28 -0.11 0.69 0c0.62,0.06 1.16,0.43 1.44,0.98l3.64 7.33c0.26,0.54 0.77,0.91 1.36,1l8.15 1.18c0.69,0.1 1.26,0.57 1.49,1.23 0.22,0.66 0.03,1.38 -0.48,1.85l-6.13 5.81z"/>
 </g>
</svg>
